<svg width="10" height="15" viewBox="0 0 10 15" fill="none" xmlns="http://www.w3.org/2000/svg">
<path d="M5 7.35603C4.5264 7.35603 4.0722 7.16789 3.73731 6.833C3.40242 6.49812 3.21429 6.04391 3.21429 5.57031C3.21429 5.09671 3.40242 4.64251 3.73731 4.30762C4.0722 3.97274 4.5264 3.7846 5 3.7846C5.4736 3.7846 5.9278 3.97274 6.26269 4.30762C6.59758 4.64251 6.78571 5.09671 6.78571 5.57031C6.78571 5.80482 6.73953 6.03702 6.64978 6.25368C6.56004 6.47033 6.42851 6.66718 6.26269 6.833C6.09687 6.99882 5.90002 7.13036 5.68336 7.2201C5.46671 7.30984 5.2345 7.35603 5 7.35603V7.35603ZM5 0.570313C3.67392 0.570313 2.40215 1.0971 1.46447 2.03478C0.526784 2.97246 0 4.24423 0 5.57031C0 9.32031 5 14.856 5 14.856C5 14.856 10 9.32031 10 5.57031C10 4.24423 9.47321 2.97246 8.53553 2.03478C7.59785 1.0971 6.32608 0.570313 5 0.570313V0.570313Z" fill="#FBBA0E"/>
</svg>
