<svg width="17" height="18" viewBox="0 0 17 18" fill="none" xmlns="http://www.w3.org/2000/svg">
<path d="M3.41889 7.85722C4.77889 10.53 6.97 12.7211 9.64278 14.0811L11.7206 12.0033C11.985 11.7389 12.3533 11.6633 12.6839 11.7672C13.7417 12.1167 14.875 12.3056 16.0556 12.3056C16.306 12.3056 16.5463 12.4051 16.7234 12.5822C16.9005 12.7593 17 12.9995 17 13.25V16.5556C17 16.806 16.9005 17.0463 16.7234 17.2234C16.5463 17.4005 16.306 17.5 16.0556 17.5C11.7974 17.5 7.71356 15.8084 4.70256 12.7974C1.69156 9.78644 0 5.70264 0 1.44444C0 1.19396 0.0995036 0.953739 0.276621 0.776621C0.453739 0.599504 0.693962 0.5 0.944444 0.5H4.25C4.50048 0.5 4.74071 0.599504 4.91782 0.776621C5.09494 0.953739 5.19444 1.19396 5.19444 1.44444C5.19444 2.625 5.38333 3.75833 5.73278 4.81611C5.83667 5.14667 5.76111 5.515 5.49667 5.77944L3.41889 7.85722Z" fill="#FBBA0E"/>
</svg>
