<svg width="33" height="35" viewBox="0 0 33 35" fill="none" xmlns="http://www.w3.org/2000/svg">
<path d="M0 7.53711L4.88743 15.032V19.6037L0.00571747 27.0839L0 7.53711Z" fill="#FBBA0E"/>
<path d="M18.7656 12.3044L23.3453 9.89617L32.7179 9.88867L18.7656 17.2217V12.3044Z" fill="#FBBA0E"/>
<path d="M18.7402 7.49262L18.7661 17.4156L13.8672 14.8332V0L18.7402 7.49262Z" fill="#FAB718"/>
<path d="M32.7184 9.88869L23.3454 9.89619L18.7402 7.49262L13.8672 0L32.7184 9.88869Z" fill="#FBBA0E"/>
<path d="M18.7661 27.1261V22.3117L13.8672 19.7783L13.8699 34.6262L18.7661 27.1261Z" fill="#FBBA0E"/>
<path d="M23.334 24.7392L4.88709 15.032L0 7.53711L32.6982 24.7294L23.334 24.7392Z" fill="#FBBA0E"/>
<path d="M13.8701 34.6257L18.7656 27.1256L23.3339 24.7393L32.6981 24.7295L13.8701 34.6257Z" fill="#FBBA0E"/>
<path d="M0.00585938 27.0844L13.9071 19.7785L9.23352 17.3184L4.88757 19.6042L0.00585938 27.0844Z" fill="#FBBA0E"/>
</svg>
