<svg width="25" height="35" viewBox="0 0 25 35" fill="none" xmlns="http://www.w3.org/2000/svg">
<path d="M22.4029 5.34299H21.0655V1.11162C21.0655 0.430298 20.6057 0 19.9788 0C19.8534 0 19.728 -8.75516e-06 19.6026 0.0358502L1.46288 4.80511C0.626948 5.02026 0 5.84501 0 6.6339V32.4523V32.5599C0 33.3488 0.752328 34.0301 1.71365 34.0301H22.4865C23.4061 34.0301 24.2002 33.3847 24.2002 32.5599V6.74147C24.1166 5.98844 23.3643 5.34299 22.4029 5.34299ZM7.81596 27.7548C7.64878 28.0417 7.23081 28.1134 6.89643 27.9341L5.80971 27.3245C5.51713 27.1452 5.43355 26.7866 5.64254 26.5356L10.073 21.3002L11.0761 22.8063L7.81596 27.7548ZM17.5963 27.3245L16.4678 27.9341C16.1335 28.1134 15.7155 28.0058 15.5483 27.7548L10.2402 19.7941L9.90579 19.9376C9.02806 20.2961 8.06673 19.9734 7.64877 19.2921C7.2308 18.6108 6.60384 17.4992 5.39174 15.4552C4.22144 13.4471 5.85151 11.6183 6.18589 12.0486L10.8671 18.2881L17.8053 26.4998C18.0143 26.7508 17.9307 27.1452 17.5963 27.3245ZM19.0592 13.8057L16.5096 17.3199L16.1753 17.7502C15.8409 18.1805 15.3393 18.5032 14.8378 18.5749L13.7511 18.7542L13.2077 19.579L12.33 18.5391L12.6644 18.1446L12.4136 17.2481C12.2882 16.8178 12.4136 16.3158 12.748 15.8497L13.0823 15.4193L15.7991 11.9769C15.8409 11.941 15.9245 11.9052 15.9663 11.941L16.3843 12.192C16.4261 12.2279 16.4678 12.2996 16.426 12.3355L13.9183 15.8138C13.8765 15.8855 13.8764 15.9931 13.96 16.0648C14.0018 16.1007 14.0854 16.1365 14.1272 16.1724C14.2108 16.2082 14.3362 16.2082 14.4198 16.1365C14.9214 15.4911 17.0948 12.7658 17.0948 12.7658C17.1366 12.7299 17.2202 12.6941 17.262 12.7299L17.6799 12.9809C17.7217 13.0168 17.7635 13.0885 17.7217 13.1244L15.2139 16.6027C15.1721 16.6744 15.1722 16.782 15.2557 16.8537C15.2975 16.8896 15.3811 16.9254 15.4229 16.9613C15.5065 16.9971 15.6319 16.9971 15.7155 16.9254C16.2171 16.28 18.3905 13.5547 18.3905 13.5547C18.4323 13.5188 18.5159 13.483 18.5577 13.5188L18.9756 13.7698C19.101 13.6981 19.101 13.7698 19.0592 13.8057ZM19.7698 5.34299H3.97067L19.7698 1.18334V5.34299Z" fill="#FBBA0E"/>
</svg>
