<svg width="39" height="35" viewBox="0 0 39 35" fill="none" xmlns="http://www.w3.org/2000/svg">
<path fill-rule="evenodd" clip-rule="evenodd" d="M38.534 34.0986H13.1551C12.899 34.0986 12.6895 33.9188 12.6895 33.6991V8.21006C12.6895 7.99033 12.899 7.81055 13.1551 7.81055H38.534C38.7901 7.81055 38.9997 7.99033 38.9997 8.21006V33.6991C38.9997 33.9188 38.7901 34.0986 38.534 34.0986ZM24.7502 17.5387C23.4464 17.5387 22.3986 16.6198 22.3986 15.5212C22.3986 14.4225 23.4464 13.5236 24.7502 13.5236C26.0308 13.5236 27.0786 14.4225 27.0786 15.5212C27.0786 16.6198 26.0308 17.5387 24.7502 17.5387ZM24.7502 14.3226C23.9819 14.3226 23.3299 14.862 23.3299 15.5212C23.3299 16.1804 23.9586 16.7397 24.7502 16.7397C25.5186 16.7397 26.1472 16.1804 26.1472 15.5212C26.1472 14.862 25.5186 14.3226 24.7502 14.3226ZM31.4791 18.997L27.0786 18.5575L25.0995 21.0145H33.6212L31.4791 18.997ZM24.2613 21.8135C24.238 21.8135 24.238 21.8135 24.2147 21.8135H17.0202C16.9969 21.8135 16.9503 21.8135 16.927 21.8135C16.8339 21.7936 16.764 21.7736 16.7175 21.7336L16.6942 21.7136H16.6709V21.6937L16.6476 21.6737L16.6243 21.6537V21.6337H16.6011V21.6138V21.5938H16.5778V21.5738V21.5538L16.5545 21.5339C16.5545 21.5139 16.5545 21.4939 16.5545 21.454V21.434V21.414V11.3662C16.5545 11.1465 16.764 10.9667 17.0202 10.9667H34.6689C34.9251 10.9667 35.1346 11.1465 35.1346 11.3662V21.394C35.1346 21.4739 35.1113 21.5339 35.088 21.5938V21.6138H35.0648V21.6337C35.0182 21.7136 34.9018 21.7736 34.7854 21.8135H34.7621H34.7388H34.7155H34.6922H34.6689H24.2613ZM23.4464 21.0145L21.5837 18.0581L18.1378 21.0145H23.4464ZM17.4858 20.4552L21.3741 17.1192C21.4673 17.0194 21.6303 16.9794 21.77 16.9994C21.9097 17.0194 22.0494 17.0993 22.1192 17.2191L24.2846 20.6549L26.4732 17.9183V17.8983L28.3359 15.5611C28.429 15.4612 28.5687 15.4013 28.7084 15.3813C28.8481 15.3813 28.9878 15.4213 29.0809 15.5212L34.2033 20.3753V11.7657H17.4858V20.4552ZM27.6839 17.8184L30.5245 18.098L28.7783 16.4401L27.6839 17.8184ZM32.62 24.9497H19.0458C18.7897 24.9497 18.5801 24.7699 18.5801 24.5502C18.5801 24.3305 18.7897 24.1507 19.0458 24.1507H32.62C32.8994 24.1507 33.0857 24.3305 33.0857 24.5502C33.0857 24.7699 32.8994 24.9497 32.62 24.9497ZM32.62 27.9461H19.0458C18.7897 27.9461 18.5801 27.7663 18.5801 27.5466C18.5801 27.3268 18.7897 27.147 19.0458 27.147H32.62C32.8994 27.147 33.0857 27.3268 33.0857 27.5466C33.0857 27.7663 32.8994 27.9461 32.62 27.9461ZM32.62 30.9424H19.0458C18.7897 30.9424 18.5801 30.7627 18.5801 30.5429C18.5801 30.3232 18.7897 30.1434 19.0458 30.1434H32.62C32.8994 30.1434 33.0857 30.3232 33.0857 30.5429C33.0857 30.7627 32.8994 30.9424 32.62 30.9424Z" fill="#FBBA0E"/>
<path fill-rule="evenodd" clip-rule="evenodd" d="M11.7581 26.2681H0.465667C0.20955 26.2681 0 26.0883 0 25.8686V0.399514C0 0.179781 0.20955 0 0.465667 0H25.6815L14.296 7.01148H13.1551C12.3867 7.01148 11.7581 7.55082 11.7581 8.21002V9.74815H4.74981C4.49369 9.74815 4.28414 9.92793 4.28414 10.1477C4.28414 10.3674 4.49369 10.5472 4.74981 10.5472H11.7581V12.7445H4.74981C4.49369 12.7445 4.28414 12.9243 4.28414 13.144C4.28414 13.3638 4.49369 13.5435 4.74981 13.5435H11.7581V15.7409H4.74981C4.49369 15.7409 4.28414 15.9207 4.28414 16.1404C4.28414 16.3601 4.49369 16.5399 4.74981 16.5399H11.7581V26.2681ZM15.9025 7.01148L26.3102 0.599272V7.01148H15.9025Z" fill="#FBBA0E"/>
</svg>
