<svg width="42" height="34" viewBox="0 0 42 34" fill="none" xmlns="http://www.w3.org/2000/svg">
<path d="M13.8818 5.42383H11.9365V28.5232H13.8818V5.42383Z" fill="#FBBA0E"/>
<path d="M20.9996 5.42383H16.1807V28.5232H20.9996V5.42383Z" fill="#FBBA0E"/>
<path d="M25.2001 5.42383H23.2549V28.5232H25.2001V5.42383Z" fill="#FBBA0E"/>
<path d="M29.4443 5.42383H27.499V28.5232H29.4443V5.42383Z" fill="#FBBA0E"/>
<path d="M35.6782 5.42383H31.6992V28.5232H35.6782V5.42383Z" fill="#FBBA0E"/>
<path d="M9.63806 5.42383H6.32227V28.5232H9.63806V5.42383Z" fill="#FBBA0E"/>
<path d="M3.00632 2.57924H9.46105V0H0V8.11701H3.00632V2.57924Z" fill="#FBBA0E"/>
<path d="M32.5391 0V2.57924H38.9938V8.11701H42.0001V0H32.5391Z" fill="#FBBA0E"/>
<path d="M38.9938 31.3307H32.5391V33.91H42.0001V25.793H38.9938V31.3307Z" fill="#FBBA0E"/>
<path d="M3.00632 25.793H0V33.91H9.46105V31.3307H3.00632V25.793Z" fill="#FBBA0E"/>
</svg>
