<svg width="44" height="33" viewBox="0 0 44 33" fill="none" xmlns="http://www.w3.org/2000/svg">
<path d="M21.4634 11.2241C18.5068 11.2241 16.0976 13.323 16.0976 15.8988H9.65854C9.40634 15.8988 9.16488 15.9736 8.97171 16.1139L4.29268 19.5077V16.8291C4.29268 16.3149 3.80976 15.8941 3.21951 15.8941C1.44341 15.8941 0 14.6366 0 13.0893V2.80485C0 1.25751 1.44341 0 3.21951 0H22.5366C24.3127 0 25.7561 1.25751 25.7561 2.80485V11.2194H21.4634V11.2241ZM44 15.8988V26.1833C44 27.7306 42.5566 28.9881 40.7805 28.9881C40.1902 28.9881 39.7073 29.4089 39.7073 29.9231V32.6017L35.0283 29.2032C34.8351 29.0629 34.5937 28.9881 34.3415 28.9881H21.4634C19.6873 28.9881 18.2439 27.7306 18.2439 26.1833V15.8988C18.2439 14.3515 19.6873 13.094 21.4634 13.094H40.7805C42.5566 13.094 44 14.3515 44 15.8988ZM36.7078 17.5724C36.2893 17.2031 35.6132 17.2031 35.1946 17.5724L33.6761 18.8907L29.5122 22.5183L27.4302 20.7045L27.0493 20.3772C26.6307 20.0079 25.9546 20.0079 25.5361 20.3772C25.1122 20.7419 25.1122 21.3309 25.5361 21.6955L28.7556 24.5004C28.9649 24.6827 29.2385 24.7762 29.5122 24.7762C29.7859 24.7762 30.0595 24.6827 30.2688 24.5004L36.7078 18.8907C37.1317 18.5307 37.1317 17.9417 36.7078 17.5724Z" fill="#FBBA0E"/>
</svg>
