<svg width="40" height="23" viewBox="0 0 40 23" fill="none" xmlns="http://www.w3.org/2000/svg">
<path d="M11.3682 11.0898C8.96821 11.0898 6.98926 13.0044 6.98926 15.3163C6.98926 16.0388 8.96821 16.689 11.3682 16.689C13.7682 16.689 15.7472 16.0749 15.7472 15.3524C15.7472 13.0044 13.7682 11.0898 11.3682 11.0898Z" fill="#FBBA0E"/>
<path d="M11.3686 9.75289C12.6709 9.75289 13.7265 8.8472 13.7265 7.72996C13.7265 6.61273 12.6709 5.70703 11.3686 5.70703C10.0664 5.70703 9.01074 6.61273 9.01074 7.72996C9.01074 8.8472 10.0664 9.75289 11.3686 9.75289Z" fill="#FBBA0E"/>
<path d="M35.9158 0H4.08421C1.85263 0 0 1.58945 0 3.50401V18.5315C0 20.4461 1.85263 22.0355 4.08421 22.0355H35.9158C38.1474 22.0355 40 20.4461 40 18.5315V3.50401C40 1.55332 38.1474 0 35.9158 0ZM11.3684 18.0619C9.93684 18.0619 8.54737 17.8813 7.53684 17.52C5.72632 16.8698 5.43158 15.8945 5.43158 15.3887C5.43158 13.1491 6.82105 11.2345 8.84211 10.3675C8 9.75342 7.45263 8.8142 7.45263 7.80274C7.45263 5.96042 9.22105 4.44322 11.3684 4.44322C13.5158 4.44322 15.2842 5.96042 15.2842 7.80274C15.2842 8.8142 14.7368 9.75342 13.8947 10.3675C15.9158 11.2706 17.3053 13.1852 17.3053 15.3887C17.3053 17.1949 14.3158 18.0619 11.3684 18.0619ZM33.3474 16.9782H22.3158C21.8947 16.9782 21.5158 16.6892 21.5158 16.2918C21.5158 15.9306 21.8526 15.6055 22.3158 15.6055H33.3474C33.7684 15.6055 34.1474 15.8945 34.1474 16.2918C34.1474 16.6892 33.7684 16.9782 33.3474 16.9782ZM33.3474 11.7041H22.3158C21.8947 11.7041 21.5158 11.4151 21.5158 11.0178C21.5158 10.6565 21.8526 10.3314 22.3158 10.3314H33.3474C33.7684 10.3314 34.1474 10.6204 34.1474 11.0178C34.1474 11.379 33.7684 11.7041 33.3474 11.7041ZM33.3474 6.39391H22.3158C21.8947 6.39391 21.5158 6.10492 21.5158 5.70756C21.5158 5.34632 21.8526 5.02121 22.3158 5.02121H33.3474C33.7684 5.02121 34.1474 5.31019 34.1474 5.70756C34.1474 6.10492 33.7684 6.39391 33.3474 6.39391Z" fill="#FBBA0E"/>
</svg>
