<svg width="550" height="94" viewBox="0 0 550 94" fill="none" xmlns="http://www.w3.org/2000/svg">
<ellipse cx="275" cy="50.0993" rx="275" ry="43.9011" fill="#FFB900"/>
<rect y="43.3848" width="550" height="7.23076" fill="#D6C6E1"/>
<ellipse cx="275" cy="43.9011" rx="275" ry="43.9011" fill="url(#paint0_linear_292_14)"/>
<path d="M218.988 32.4592C218.988 32.5461 218.988 32.633 218.849 32.8068C218.849 32.9805 218.71 33.1543 218.572 33.3281C218.433 33.5018 218.294 33.719 218.155 33.9362C218.016 34.1534 217.739 34.3272 217.461 34.501C217.184 34.6747 216.906 34.805 216.629 34.9354C216.351 35.0657 215.935 35.1091 215.518 35.1091H199.837L189.706 51.052C189.567 51.1388 189.429 51.2257 189.151 51.3126C188.874 51.3995 188.457 51.4429 187.902 51.5298C187.347 51.6167 186.653 51.6167 185.82 51.6601C184.988 51.7036 183.878 51.7036 182.629 51.7036C181.38 51.7036 180.408 51.7036 179.576 51.6601C178.743 51.6167 178.188 51.5733 177.633 51.5298C177.216 51.4864 176.939 51.3995 176.8 51.3126C176.661 51.2257 176.661 51.1388 176.661 51.052L186.792 35.1091H171.249C170.694 35.1091 170.416 35.0657 170.278 34.9354C170.139 34.805 170 34.6747 170 34.4575C170 34.3706 170 34.2403 170.139 34.11C170.139 33.9362 170.278 33.7625 170.416 33.5887C170.555 33.3715 170.694 33.1977 170.833 32.9805C170.971 32.7633 171.249 32.5896 171.527 32.4158C171.804 32.242 172.082 32.1117 172.359 31.9814C172.637 31.8945 173.053 31.8076 173.469 31.8076H218.016C218.433 31.8076 218.71 31.8511 218.988 31.9814C218.988 32.1117 218.988 32.242 218.988 32.4592Z" fill="white"/>
<path d="M252.017 51.0513C251.878 51.2685 251.323 51.3988 250.49 51.5292C249.658 51.616 248.131 51.6595 246.188 51.6595C245.217 51.6595 244.384 51.6595 243.69 51.616C242.996 51.616 242.58 51.5726 242.164 51.5292C241.747 51.4857 241.47 51.4423 241.47 51.3554C241.331 51.2685 241.331 51.1816 241.331 51.0947L242.719 48.9227C242.164 49.2702 241.47 49.5743 240.36 49.9653C239.249 50.3128 238 50.6603 236.613 50.9644C235.086 51.2685 233.56 51.4857 231.756 51.7029C229.951 51.8767 228.147 52.007 226.205 52.007C223.568 52.007 221.486 51.8767 219.682 51.5726C218.017 51.2685 216.629 50.921 215.519 50.3997C214.409 49.9218 213.715 49.3571 213.298 48.7489C212.882 48.1408 212.604 47.4891 212.604 46.7941C212.604 46.1425 212.743 45.4474 213.16 44.7089C213.576 43.9704 214.131 43.1885 214.964 42.45C215.796 41.7115 216.768 40.973 218.156 40.2779C219.405 39.5829 220.931 38.9747 222.735 38.41C224.539 37.8887 226.482 37.4543 228.841 37.1068C231.2 36.8027 233.698 36.6289 236.613 36.6289C239.249 36.6289 241.747 36.8027 243.829 37.1502C245.911 37.4977 247.715 38.019 249.241 38.6706L250.074 37.4543C250.213 37.2371 250.768 37.1068 251.6 36.9764C252.433 36.8896 253.96 36.8461 255.903 36.8461C256.874 36.8461 257.707 36.8461 258.401 36.8896C259.094 36.933 259.511 36.933 259.927 36.9764C260.343 37.0199 260.621 37.0633 260.621 37.1502C260.76 37.2371 260.76 37.324 260.76 37.4108L252.017 51.0513ZM246.049 41.4943C244.939 40.9296 243.69 40.4952 242.303 40.2345C240.915 39.9739 239.388 39.8001 237.445 39.8001C236.058 39.8001 234.809 39.887 233.698 40.1042C232.588 40.3214 231.617 40.582 230.645 40.9296C229.813 41.2771 228.98 41.6681 228.286 42.1025C227.592 42.5369 227.037 43.0147 226.621 43.4926C226.205 43.9704 225.788 44.4483 225.649 44.9696C225.372 45.4474 225.372 45.9253 225.372 46.3162C225.372 46.6203 225.511 46.9244 225.649 47.1851C225.788 47.4457 226.066 47.7064 226.482 47.9236C226.898 48.1408 227.454 48.3145 228.009 48.4448C228.702 48.5752 229.535 48.6186 230.507 48.6186C231.894 48.6186 233.421 48.4883 234.947 48.2276C236.474 47.967 237.862 47.576 239.111 47.1416C240.36 46.6638 241.609 46.1425 242.58 45.5343C243.551 44.9261 244.245 44.2745 244.8 43.536L246.049 41.4943Z" fill="white"/>
<path d="M309.331 51.6161C308.775 52.5284 307.804 53.3537 306.555 54.0488C305.306 54.7439 303.641 55.3086 301.698 55.7864C299.616 56.2643 297.257 56.6118 294.343 56.829C291.428 57.0462 288.098 57.1765 284.212 57.1765C281.437 57.1765 278.939 57.0897 276.718 56.9593C274.498 56.829 272.694 56.6553 271.167 56.4381C270.612 56.3512 270.335 56.2643 270.057 56.1774C269.918 56.0905 269.779 55.9168 269.779 55.743C269.779 55.6996 269.779 55.5692 269.779 55.4389C269.779 55.3086 269.918 55.1348 270.057 54.9611C270.196 54.7873 270.335 54.6135 270.473 54.4398C270.612 54.266 270.89 54.0922 271.028 53.9185C271.306 53.7881 271.583 53.6578 271.861 53.5709C272.139 53.4841 272.555 53.4406 272.832 53.4406C273.249 53.4406 273.665 53.4841 274.22 53.5709C274.775 53.6578 275.608 53.7447 276.441 53.875C277.412 53.9619 278.522 54.0922 279.91 54.1791C281.298 54.266 283.102 54.3094 285.045 54.3094C286.71 54.3094 288.237 54.266 289.486 54.1791C290.735 54.0922 291.984 53.9619 292.955 53.7881C293.926 53.6144 294.759 53.3537 295.314 53.0931C295.869 52.789 296.286 52.4415 296.563 52.0505C296.979 51.3989 297.396 50.8342 297.812 50.3998C298.228 49.9653 298.645 49.5744 298.922 49.3137C298.367 49.6613 297.535 49.9653 296.424 50.3129C295.314 50.6604 294.065 50.921 292.677 51.2251C291.29 51.4858 289.763 51.703 288.098 51.8767C286.433 52.0505 284.906 52.094 283.241 52.094C280.743 52.094 278.661 51.9636 276.857 51.703C275.192 51.4423 273.804 51.0514 272.694 50.617C271.584 50.1391 270.89 49.6178 270.335 48.9662C269.918 48.3146 269.641 47.663 269.641 46.9245C269.641 46.2729 269.779 45.5344 270.196 44.7959C270.612 44.0139 271.167 43.2754 272 42.5369C272.832 41.7984 273.943 41.0599 275.192 40.3649C276.441 39.6698 277.967 39.0617 279.771 38.5404C281.575 38.0191 283.518 37.5847 285.877 37.2806C288.237 36.9765 290.735 36.8027 293.649 36.8027C296.286 36.8027 298.784 36.9765 300.865 37.324C302.947 37.6716 304.751 38.1928 306.277 38.8445L307.11 37.6281C307.249 37.4109 307.804 37.2806 308.637 37.1503C309.469 37.0634 310.996 37.0199 312.939 37.0199C313.91 37.0199 314.743 37.0199 315.437 37.0634C316.131 37.1068 316.547 37.1068 316.963 37.1503C317.38 37.1937 317.657 37.2371 317.657 37.324C317.796 37.4109 317.796 37.4978 317.796 37.5847L309.331 51.6161ZM303.78 41.4944C302.669 40.9296 301.42 40.4952 300.033 40.2346C298.645 39.9739 297.118 39.8002 295.175 39.8002C293.788 39.8002 292.539 39.887 291.428 40.1042C290.318 40.3215 289.347 40.5821 288.375 40.9296C287.543 41.2772 286.71 41.6681 286.016 42.1025C285.322 42.5369 284.767 43.0148 284.351 43.4926C283.935 43.9705 283.518 44.4918 283.379 44.9696C283.102 45.4475 283.102 45.9253 283.102 46.3597C283.102 46.7073 283.241 47.0114 283.379 47.3154C283.518 47.6195 283.935 47.8367 284.212 48.0539C284.628 48.2711 285.184 48.4015 285.739 48.5318C286.433 48.6187 287.126 48.7056 288.098 48.7056C289.486 48.7056 291.012 48.5752 292.539 48.3146C294.065 48.0539 295.453 47.663 296.702 47.2286C297.951 46.7507 299.2 46.2294 300.171 45.6212C301.143 45.0131 301.837 44.318 302.392 43.623L303.78 41.4944Z" fill="white"/>
<path d="M368.865 51.0514C368.865 51.1383 368.588 51.2251 368.449 51.312C368.172 51.3989 367.894 51.4423 367.339 51.4858C366.784 51.5292 366.229 51.5727 365.396 51.6161C364.563 51.6595 363.592 51.6595 362.482 51.6595C361.233 51.6595 360.261 51.6595 359.568 51.6161C358.735 51.5727 358.18 51.5727 357.763 51.4858C357.347 51.4423 357.07 51.3555 356.931 51.312C356.792 51.2251 356.792 51.1383 356.792 51.0514L365.396 37.4543C365.396 37.3675 365.674 37.2806 365.812 37.1937C366.09 37.1068 366.368 37.0634 366.923 36.9765C367.478 36.9331 368.033 36.8896 368.865 36.8462C369.698 36.8027 370.67 36.8027 371.919 36.8027C373.168 36.8027 374.139 36.8027 374.833 36.8462C375.666 36.8896 376.221 36.9331 376.637 36.9765C377.053 37.0199 377.331 37.1068 377.47 37.1937C377.608 37.2806 377.608 37.3675 377.608 37.4543L368.865 51.0514Z" fill="white"/>
<path d="M336.254 51.9637C332.646 51.9637 329.871 51.7031 328.067 51.1383C326.124 50.5736 325.291 49.7917 325.291 48.7925C325.291 48.1409 325.846 46.9246 327.095 45.1435C328.344 43.4058 338.336 28.8966 338.336 28.8966C340.973 28.2884 348.467 28.2884 350.132 28.8966L338.336 46.0123C337.642 47.0114 337.365 47.6631 337.365 47.9671C337.365 48.7491 338.752 49.0966 341.667 49.0966C343.332 49.0966 345.83 48.7925 346.107 48.836C347.773 49.4441 344.303 51.6162 344.303 51.6162C341.528 51.8768 338.891 51.9637 336.254 51.9637Z" fill="white"/>
<path d="M381.079 32.9797C381.079 34.1526 378.026 35.1517 374.14 35.1517C370.393 35.1517 367.201 34.196 367.201 32.9797C367.201 31.8068 370.254 30.8076 374.14 30.8076C378.026 30.8076 381.079 31.7633 381.079 32.9797Z" fill="white"/>
<mask id="mask0_292_14" style="mask-type:alpha" maskUnits="userSpaceOnUse" x="0" y="0" width="550" height="89">
<ellipse cx="275" cy="44.3112" rx="275" ry="43.9011" fill="url(#paint1_linear_292_14)"/>
</mask>
<g mask="url(#mask0_292_14)">
<g opacity="0.1" filter="url(#filter0_f_292_14)">
<ellipse cx="276.595" cy="-17.1337" rx="255.87" ry="43.8194" fill="#363636"/>
</g>
</g>
<defs>
<filter id="filter0_f_292_14" x="10.7256" y="-70.9531" width="531.739" height="107.639" filterUnits="userSpaceOnUse" color-interpolation-filters="sRGB">
<feFlood flood-opacity="0" result="BackgroundImageFix"/>
<feBlend mode="normal" in="SourceGraphic" in2="BackgroundImageFix" result="shape"/>
<feGaussianBlur stdDeviation="5" result="effect1_foregroundBlur_292_14"/>
</filter>
<linearGradient id="paint0_linear_292_14" x1="152.246" y1="8.2604" x2="395.385" y2="172.409" gradientUnits="userSpaceOnUse">
<stop stop-color="#FFD35E"/>
<stop offset="0.523958" stop-color="#FFB900"/>
<stop offset="1" stop-color="#FFCC43"/>
</linearGradient>
<linearGradient id="paint1_linear_292_14" x1="71" y1="-15.4684" x2="466.201" y2="210.373" gradientUnits="userSpaceOnUse">
<stop stop-color="#F6F6F6"/>
<stop offset="0.375" stop-color="#CFCBD2"/>
<stop offset="1" stop-color="#EFEFEF"/>
</linearGradient>
</defs>
</svg>
