<svg width="17" height="10" viewBox="0 0 17 10" fill="none" xmlns="http://www.w3.org/2000/svg">
<path fill-rule="evenodd" clip-rule="evenodd" d="M8.34306 9.93714H9.37378C9.37378 9.93714 9.68299 9.88428 9.8376 9.72571C9.9922 9.56713 9.9922 9.24999 9.9922 9.24999C9.9922 9.24999 9.9922 7.87571 10.6106 7.66428C11.2291 7.45285 12.0536 9.03856 12.8782 9.61999C13.4966 10.0957 13.9605 9.98999 13.9605 9.98999L16.228 9.93714C16.228 9.93714 17.4133 9.88428 16.8465 8.87999C16.7949 8.82714 16.5372 8.19285 15.1458 6.87142C13.7028 5.49714 13.9089 5.76142 15.6096 3.38285C16.6403 1.95571 17.0526 1.11 16.9495 0.687142C16.8465 0.317142 16.0734 0.422856 16.0734 0.422856H13.4966C13.4966 0.422856 13.2905 0.369999 13.1874 0.475714C13.0328 0.581428 12.9813 0.739999 12.9813 0.739999C12.9813 0.739999 12.569 1.85 12.0536 2.80143C10.9198 4.75714 10.456 4.86285 10.3014 4.75714C9.88913 4.49285 9.9922 3.59428 9.9922 3.01285C9.9922 1.11 10.3014 0.317142 9.42531 0.105714C9.16763 0.0528565 8.96149 0 8.23999 0C7.31235 0 6.53931 -2.04784e-07 6.12702 0.211428C5.81781 0.369999 5.61167 0.687142 5.76628 0.687142C5.92088 0.687142 6.33317 0.792857 6.53931 1.05714C6.74545 1.53286 6.74545 2.32571 6.74545 2.32571C6.74545 2.32571 6.90006 4.59857 6.3847 4.86285C6.02395 5.07428 5.56013 4.65142 4.52942 2.85428C4.01406 1.95571 3.60177 0.89857 3.60177 0.89857C3.60177 0.89857 3.55024 0.687142 3.39563 0.581428C3.24102 0.475714 2.98335 0.422856 2.98335 0.422856H0.561167C0.561167 0.422856 0.200417 0.422857 0.0458095 0.581428C-0.0572619 0.74 0.0458095 1.00428 0.0458095 1.00428C0.0458095 1.00428 1.95263 5.55 4.11713 7.87571C6.12703 10.0957 8.34306 9.93714 8.34306 9.93714Z" fill="#CBCCDE"/>
</svg>
