<svg width="15" height="10" viewBox="0 0 15 10" fill="none" xmlns="http://www.w3.org/2000/svg">
<path d="M14.6869 1.47421C14.6016 1.18874 14.4341 0.928412 14.2014 0.719275C13.9688 0.510138 13.679 0.359528 13.361 0.282519C12.1908 5.73258e-08 7.5 0 7.5 0C7.5 0 2.80915 -5.73258e-08 1.63895 0.281016C1.3209 0.357776 1.03096 0.508302 0.798224 0.717478C0.565492 0.926653 0.398168 1.18712 0.313058 1.47271C-6.38621e-08 2.52464 0 4.71867 0 4.71867C0 4.71867 -6.38621e-08 6.9127 0.313058 7.96313C0.485491 8.54319 0.99442 9.00003 1.63895 9.15482C2.80915 9.43734 7.5 9.43734 7.5 9.43734C7.5 9.43734 12.1908 9.43734 13.361 9.15482C14.0073 9.00003 14.5145 8.54319 14.6869 7.96313C15 6.9127 15 4.71867 15 4.71867C15 4.71867 15 2.52464 14.6869 1.47421ZM6.01004 6.73237V2.70497L9.89397 4.70364L6.01004 6.73237Z" fill="#CBCCDE"/>
</svg>
