<svg width="27" height="28" viewBox="0 0 27 28" fill="none" xmlns="http://www.w3.org/2000/svg">
<path d="M5.47758 16.0792L6.84958 17.4862C7.12958 17.7733 7.12958 18.2614 6.84958 18.5485C6.70958 18.6921 6.54158 18.7495 6.34558 18.7495C6.14958 18.7495 5.95358 18.6921 5.84158 18.5485L4.46957 17.1416L2.76157 18.8931L4.13357 20.3C4.41357 20.5872 4.41357 21.0753 4.13357 21.3624C3.99357 21.506 3.82557 21.5634 3.62957 21.5634C3.43357 21.5634 3.26557 21.4773 3.12557 21.3624L1.72558 19.9268L0.353575 21.3337C-0.122425 21.8218 -0.122425 22.6258 0.381575 23.1139L4.04957 26.8753C4.30157 27.105 4.60958 27.2485 4.91758 27.2485C5.22558 27.2485 5.53358 27.1337 5.78558 26.8753L12.8696 19.6109L7.43758 14.0693L5.47758 16.0792Z" fill="#FBBA0E"/>
<path d="M26.226 4.10594L22.558 0.344554C22.11 -0.114851 21.298 -0.114851 20.822 0.344554L19.478 1.75149L20.85 3.15842C21.13 3.44554 21.13 3.93366 20.85 4.22079C20.71 4.36436 20.542 4.4505 20.346 4.4505C20.15 4.4505 19.954 4.36436 19.842 4.22079L18.47 2.81386L16.762 4.56535L18.134 5.97228C18.414 6.25941 18.414 6.74752 18.134 7.03465C17.994 7.17822 17.826 7.23564 17.63 7.23564C17.434 7.23564 17.238 7.17822 17.126 7.03465L15.698 5.5703L13.71 7.60891L19.114 13.1505L26.226 5.85743C26.45 5.62772 26.59 5.31188 26.59 4.96733C26.59 4.62277 26.45 4.33564 26.226 4.10594Z" fill="#FBBA0E"/>
<path d="M8.47815 4.3173L4.24121 8.66211L18.5953 23.3817L22.8323 19.0369L8.47815 4.3173Z" fill="#FBBA0E"/>
<path d="M24.4332 20.7022L23.8732 20.1279L19.6172 24.4636L20.1772 25.0378C20.3452 25.2101 20.5412 25.2962 20.7652 25.3537L24.0132 25.8992C24.7412 26.0141 25.3572 25.3824 25.2452 24.6359L24.7132 21.3052C24.6852 21.0755 24.6012 20.8458 24.4332 20.7022Z" fill="#FBBA0E"/>
<path d="M3.20952 7.60937L7.43752 3.27372L5.72952 1.52224C5.30952 1.09155 4.63752 1.09155 4.21752 1.52224L1.50152 4.30739C1.08152 4.73808 1.08152 5.42719 1.50152 5.85788L3.20952 7.60937Z" fill="#FBBA0E"/>
</svg>
