<svg width="31" height="25" viewBox="0 0 31 25" fill="none" xmlns="http://www.w3.org/2000/svg">
<path d="M27.88 0H2.72C1.224 0 0 1.23732 0 2.74959V21.9624C0 23.4746 1.224 24.7119 2.72 24.7119H27.88C29.376 24.7119 30.6 23.4746 30.6 21.9624V2.74959C30.6 1.23732 29.376 0 27.88 0ZM2.04 23.2684C1.666 23.2684 1.36 22.9591 1.36 22.581C1.36 22.2029 1.666 21.8936 2.04 21.8936C2.414 21.8936 2.72 22.2029 2.72 22.581C2.72 22.9591 2.414 23.2684 2.04 23.2684ZM5.44 23.2684C5.066 23.2684 4.76 22.9591 4.76 22.581C4.76 21.0687 3.536 19.8314 2.04 19.8314C1.666 19.8314 1.36 19.5221 1.36 19.144C1.36 18.766 1.666 18.4566 2.04 18.4566C4.284 18.4566 6.12 20.3126 6.12 22.581C6.12 22.9591 5.814 23.2684 5.44 23.2684ZM8.84 23.2684C8.466 23.2684 8.16 22.9591 8.16 22.581C8.16 19.1784 5.406 16.3944 2.04 16.3944C1.666 16.3944 1.36 16.0851 1.36 15.707C1.36 15.329 1.666 15.0196 2.04 15.0196C6.154 15.0196 9.52 18.4223 9.52 22.581C9.52 22.9591 9.214 23.2684 8.84 23.2684ZM12.24 23.2684C11.866 23.2684 11.56 22.9591 11.56 22.581C11.56 17.2881 7.276 12.9574 2.04 12.9574C1.666 12.9574 1.36 12.6481 1.36 12.27C1.36 11.892 1.666 11.5827 2.04 11.5827C8.024 11.5827 12.92 16.5319 12.92 22.581C12.92 22.9591 12.614 23.2684 12.24 23.2684Z" fill="#FBBA0E"/>
</svg>
