<svg width="32" height="32" viewBox="0 0 32 32" fill="none" xmlns="http://www.w3.org/2000/svg">
<path d="M29.6193 14.9033C28.7613 14.7714 27.9693 15.3982 27.8373 16.2229C27.5073 18.7301 26.3523 21.0064 24.5703 22.7879C20.9403 26.4167 15.4953 27.1095 11.1723 24.8992L9.02734 27.3075C11.3043 28.6271 13.8783 29.2868 16.4193 29.2868C20.1813 29.2868 23.9433 27.8683 26.7813 24.9982C29.0583 22.7219 30.4773 19.8518 30.9393 16.6518C31.0713 15.8271 30.4773 15.0353 29.6193 14.9033Z" fill="#FBBA0E"/>
<path d="M29.6195 1.74021C28.7615 1.74021 28.0685 2.43299 28.0685 3.32371V5.53402L26.8145 4.28041C21.1055 -1.4268 11.7995 -1.4268 6.05753 4.28041C4.27553 6.06186 3.05453 8.20619 2.39453 10.4495C2.98853 10.0206 3.71453 9.78969 4.47353 9.78969H5.99153C6.55253 8.60206 7.31153 7.48041 8.30153 6.49072C12.7895 2.00412 20.1155 2.00412 24.6035 6.49072L25.8245 7.74433H23.6135C22.7555 7.74433 22.0295 8.43711 22.0295 9.29485C22.0295 10.1526 22.7225 10.8784 23.6135 10.8784H29.6195C30.4775 10.8784 31.2035 10.1856 31.2035 9.29485V3.29072C31.2035 2.43299 30.4775 1.74021 29.6195 1.74021Z" fill="#FBBA0E"/>
<path d="M16.3867 6.49023C15.5287 6.49023 14.8027 7.18302 14.8027 8.07374V14.6387C14.8027 15.3315 15.2647 15.9583 15.9577 16.1562L20.7757 17.5088C20.9077 17.5418 21.0727 17.5748 21.2047 17.5748C21.8977 17.5748 22.5247 17.1129 22.7227 16.4201C22.9537 15.5954 22.4587 14.7377 21.6337 14.4737L17.9377 13.4511V8.07374C17.9377 7.21601 17.2447 6.49023 16.3867 6.49023Z" fill="#FBBA0E"/>
<path d="M10.0835 19.7525H7.4435L10.7435 13.8803C11.0735 13.3195 10.6445 12.5938 9.9845 12.5938H4.47351C4.11051 12.5938 3.78051 12.8247 3.68151 13.1546L0.0515057 22.8535C-0.146494 23.4144 0.249506 24.0082 0.843506 24.0082H2.75751L0.711506 30.3752C0.480506 31.134 1.40451 31.6618 1.93251 31.068L10.7105 21.1711C11.2055 20.6432 10.8095 19.7525 10.0835 19.7525Z" fill="#FBBA0E"/>
</svg>
