<svg width="31" height="24" viewBox="0 0 31 24" fill="none" xmlns="http://www.w3.org/2000/svg">
<path d="M0 20.7273C0 22.5273 1.47656 24 3.28125 24H27.3438C29.1484 24 30.625 22.5273 30.625 20.7273V3.27273C30.625 1.47273 29.1484 0 27.3438 0H3.28125C1.47656 0 0 1.47273 0 3.27273V20.7273ZM15.3125 16.1455H24.0625C24.6641 16.1455 25.1562 16.6364 25.1562 17.2364C25.1562 17.8473 24.6641 18.3273 24.0625 18.3273H15.3125C14.7109 18.3273 14.2188 17.8473 14.2188 17.2364C14.2188 16.6364 14.7109 16.1455 15.3125 16.1455ZM6.05937 7.25455C5.63281 6.82909 5.63281 6.14182 6.05937 5.71636C6.48594 5.29091 7.18594 5.29091 7.6125 5.71636L12.95 11.04C13.1469 11.2473 13.2672 11.52 13.2672 11.8036C13.2672 12.0982 13.1469 12.3709 12.95 12.5782L7.6125 17.9018C7.39375 18.12 7.12031 18.2182 6.83594 18.2182C6.55156 18.2182 6.27812 18.12 6.05937 17.9018C5.63281 17.4764 5.63281 16.7891 6.05937 16.3636L10.6203 11.8036L6.05937 7.25455Z" fill="#FBBA0E"/>
</svg>
