<svg width="22" height="30" viewBox="0 0 22 30" fill="none" xmlns="http://www.w3.org/2000/svg">
<path d="M22 29C22.0001 29.1313 21.9743 29.2614 21.924 29.3828C21.8738 29.5041 21.8001 29.6144 21.7073 29.7073C21.6144 29.8001 21.5041 29.8738 21.3828 29.924C21.2614 29.9743 21.1313 30.0001 21 30H1C0.868657 30.0001 0.738588 29.9743 0.617228 29.924C0.495869 29.8738 0.3856 29.8001 0.292726 29.7073C0.199853 29.6144 0.126196 29.5041 0.075968 29.3828C0.0257398 29.2614 -7.47669e-05 29.1313 1.62651e-07 29C1.62651e-07 26.0826 1.15893 23.2847 3.22183 21.2218C5.28473 19.1589 8.08262 18 11 18C13.9174 18 16.7153 19.1589 18.7782 21.2218C20.8411 23.2847 22 26.0826 22 29ZM11 4C9.81331 4 8.65327 4.35189 7.66658 5.01118C6.67988 5.67047 5.91085 6.60754 5.45672 7.7039C5.0026 8.80026 4.88378 10.0067 5.11529 11.1705C5.3468 12.3344 5.91824 13.4035 6.75736 14.2426C7.59647 15.0818 8.66557 15.6532 9.82946 15.8847C10.9933 16.1162 12.1997 15.9974 13.2961 15.5433C14.3925 15.0892 15.3295 14.3201 15.9888 13.3334C16.6481 12.3467 17 11.1867 17 10C16.9983 8.40924 16.3656 6.88412 15.2407 5.75928C14.1159 4.63444 12.5908 4.00174 11 4ZM2 13C2.53022 12.9993 3.03853 12.7884 3.41345 12.4135C3.78838 12.0385 3.99931 11.5302 4 11V9C4 8.46957 3.78929 7.96086 3.41421 7.58579C3.03914 7.21072 2.53043 7 2 7C1.46957 7 0.960859 7.21072 0.585787 7.58579C0.210714 7.96086 1.62651e-07 8.46957 1.62651e-07 9V11C0.00068811 11.5302 0.211623 12.0385 0.586547 12.4135C0.96147 12.7884 1.46978 12.9993 2 13ZM11 2C12.3442 2.00137 13.6663 2.34164 14.8441 2.98936C16.0219 3.63707 17.0174 4.57131 17.7385 5.70569C18.3118 5.31732 18.9767 5.08564 19.6672 5.03363C18.7949 3.5047 17.5336 2.23372 16.0114 1.34968C14.4893 0.465645 12.7603 0 11 0C9.23971 0 7.51075 0.465645 5.98855 1.34968C4.46635 2.23372 3.2051 3.5047 2.33276 5.03363C3.02327 5.08564 3.68817 5.31732 4.26147 5.70569C4.98257 4.57131 5.97806 3.63707 7.15588 2.98936C8.3337 2.34164 9.65583 2.00137 11 2ZM20 7C19.4698 7.00069 18.9615 7.21162 18.5865 7.58655C18.2116 7.96147 18.0007 8.46978 18 9V11C18.0005 11.3337 18.0847 11.662 18.2448 11.9548C18.4049 12.2476 18.6358 12.4957 18.9164 12.6763C18.7637 13.3358 18.3925 13.9243 17.863 14.3462C17.3336 14.7681 16.677 14.9985 16 15C15.7348 15 15.4804 15.1054 15.2929 15.2929C15.1054 15.4804 15 15.7348 15 16C15 16.2652 15.1054 16.5196 15.2929 16.7071C15.4804 16.8946 15.7348 17 16 17C17.1909 16.9967 18.3414 16.568 19.244 15.7912C20.1467 15.0145 20.7421 13.9407 20.9228 12.7636C21.2463 12.5961 21.5177 12.3431 21.7076 12.0322C21.8975 11.7213 21.9987 11.3643 22 11V9C21.9993 8.46978 21.7884 7.96147 21.4135 7.58655C21.0385 7.21162 20.5302 7.00069 20 7Z" fill="#FBBA0E"/>
</svg>
