<svg width="34" height="32" viewBox="0 0 34 32" fill="none" xmlns="http://www.w3.org/2000/svg">
<path d="M26.0312 29.0325C26.6914 29.0325 27.2266 28.5126 27.2266 27.8713C27.2266 27.2299 26.6914 26.71 26.0312 26.71C25.3711 26.71 24.8359 27.2299 24.8359 27.8713C24.8359 28.5126 25.3711 29.0325 26.0312 29.0325Z" fill="#FBBA0E"/>
<path d="M26.0312 23.8711C23.761 23.8711 21.9141 25.6654 21.9141 27.8711C21.9141 30.0767 23.761 31.8711 26.0312 31.8711C28.3015 31.8711 30.1484 30.0767 30.1484 27.8711C30.1484 25.6654 28.3015 23.8711 26.0312 23.8711ZM26.0312 29.8066C24.933 29.8066 24.0391 28.9384 24.0391 27.8711C24.0391 26.8038 24.933 25.9356 26.0312 25.9356C27.1295 25.9356 28.0234 26.8038 28.0234 27.8711C28.0234 28.9384 27.1295 29.8066 26.0312 29.8066Z" fill="#FBBA0E"/>
<path d="M7.96875 23.8711C5.69849 23.8711 3.85156 25.6654 3.85156 27.8711C3.85156 30.0767 5.69849 31.8711 7.96875 31.8711C10.239 31.8711 12.0859 30.0767 12.0859 27.8711C12.0859 25.6654 10.239 23.8711 7.96875 23.8711ZM7.96875 29.8066C6.87019 29.8066 5.97656 28.9384 5.97656 27.8711C5.97656 26.8038 6.87019 25.9356 7.96875 25.9356C9.06731 25.9356 9.96094 26.8038 9.96094 27.8711C9.96094 28.9384 9.06731 29.8066 7.96875 29.8066Z" fill="#FBBA0E"/>
<path d="M7.96875 29.0325C8.6289 29.0325 9.16406 28.5126 9.16406 27.8713C9.16406 27.2299 8.6289 26.71 7.96875 26.71C7.3086 26.71 6.77344 27.2299 6.77344 27.8713C6.77344 28.5126 7.3086 29.0325 7.96875 29.0325Z" fill="#FBBA0E"/>
<path d="M11.9531 9.41932C13.2001 9.41932 14.2109 8.43724 14.2109 7.22577C14.2109 6.01431 13.2001 5.03223 11.9531 5.03223C10.7062 5.03223 9.69531 6.01431 9.69531 7.22577C9.69531 8.43724 10.7062 9.41932 11.9531 9.41932Z" fill="#FBBA0E"/>
<path d="M11.7635 15.5994C11.8227 15.6304 11.888 15.646 11.9531 15.646C12.0182 15.646 12.0836 15.6304 12.1427 15.5994C12.39 15.4696 18.1953 12.3592 18.1953 7.22565C18.1953 3.88165 15.3951 1.16113 11.9531 1.16113C8.51116 1.16113 5.71094 3.88165 5.71094 7.22565C5.71094 12.3592 11.5163 15.4696 11.7635 15.5994ZM11.9531 4.25791C13.6374 4.25791 15.0078 5.58931 15.0078 7.22565C15.0078 8.86199 13.6374 10.1934 11.9531 10.1934C10.2688 10.1934 8.89844 8.86199 8.89844 7.22565C8.89844 5.58931 10.2688 4.25791 11.9531 4.25791Z" fill="#FBBA0E"/>
<path d="M29.4844 20.4879H32.6901L31.1528 16.1741C30.8011 15.1872 29.8429 14.5244 28.7679 14.5244H27.7578V18.8105C27.7578 19.7354 28.5324 20.4879 29.4844 20.4879Z" fill="#FBBA0E"/>
<path d="M32.4063 26.4512H30.7236C30.8677 26.8997 30.9454 27.3765 30.9454 27.8705C30.9454 28.3646 30.8677 28.8413 30.7236 29.2899H31.3438C32.1495 29.2899 32.8048 28.6533 32.8048 27.8705V26.8383C32.8048 26.6246 32.6263 26.4512 32.4063 26.4512Z" fill="#FBBA0E"/>
<path d="M29.4844 21.2621C28.093 21.2621 26.9609 20.1623 26.9609 18.8105V14.5244H23.5078V23.7819C24.2465 23.35 25.108 23.0967 26.0312 23.0967C27.9267 23.0967 29.5718 24.1465 30.3912 25.6774H32.8047V21.2621H29.4844Z" fill="#FBBA0E"/>
<path d="M22.7109 11.1708C22.7109 10.1035 21.817 9.23535 20.7188 9.23535H18.7184C17.517 13.6049 12.7527 16.1591 12.522 16.2805L12.1427 16.4798C12.0836 16.5108 12.0182 16.5264 11.9531 16.5264C11.888 16.5264 11.8226 16.5108 11.7635 16.4798L11.3843 16.2805C11.1536 16.1591 6.38924 13.6049 5.18783 9.23535H3.1875C2.08894 9.23535 1.19531 10.1035 1.19531 11.1708V25.6774H3.6088C4.42818 24.1465 6.07326 23.0967 7.96875 23.0967C9.86424 23.0967 11.5093 24.1465 12.3287 25.6774H21.6713C21.937 25.1809 22.2906 24.7373 22.7109 24.3616V11.1708Z" fill="#FBBA0E"/>
<path d="M1.59375 26.4512C1.37378 26.4512 1.19531 26.6246 1.19531 26.8383V27.8705C1.19531 28.6533 1.85056 29.2899 2.65625 29.2899H3.27644C3.13238 28.8413 3.05469 28.3646 3.05469 27.8705C3.05469 27.3765 3.13238 26.8997 3.27644 26.4512H1.59375Z" fill="#FBBA0E"/>
<path d="M12.6611 26.4512C12.8052 26.8997 12.8829 27.3765 12.8829 27.8705C12.8829 28.3646 12.8052 28.8413 12.6611 29.2899H21.339C21.195 28.8413 21.1173 28.3646 21.1173 27.8705C21.1173 27.3765 21.195 26.8997 21.339 26.4512H12.6611Z" fill="#FBBA0E"/>
</svg>
