<svg width="33" height="32" viewBox="0 0 33 32" fill="none" xmlns="http://www.w3.org/2000/svg">
<g clip-path="url(#clip0_20_38)">
<path d="M13.5092 13.2556C13.1431 13.1892 12.7659 13.2608 12.4476 13.4571C12.2105 13.6054 12.0168 13.8159 11.8866 14.0668L9.55685 18.5905C9.46026 18.7801 9.31492 18.9392 9.13643 19.0507C8.95794 19.1623 8.75304 19.2222 8.54375 19.2238C8.40326 19.2253 8.26394 19.1976 8.13421 19.1425C8.00448 19.0875 7.88704 19.0061 7.78897 18.9034C7.69091 18.8007 7.61425 18.6788 7.56364 18.545C7.51302 18.4112 7.4895 18.2684 7.4945 18.125C7.51408 17.6289 7.40517 17.1363 7.17876 16.6969C6.90094 16.1604 6.75553 15.5629 6.75515 14.956V10.0078C6.35585 10.3817 5.99945 10.7152 5.72885 10.9712C5.36213 11.3151 5.09791 11.7575 4.96657 12.2478L3.59375 17.324C3.46404 17.8082 3.4561 18.318 3.57067 18.8062L4.57715 23.1143C4.75578 23.8859 4.64263 24.6979 4.26032 25.388L4.11514 25.6474L8.93317 28.433L11.6952 24.3337C12.4223 23.2582 12.9595 22.0613 13.2825 20.7969L14.7042 15.2552C14.763 15.0436 14.7782 14.8219 14.7491 14.604C14.7199 14.3861 14.6469 14.1767 14.5347 13.9889C14.4225 13.8012 14.2735 13.6391 14.097 13.5129C13.9205 13.3868 13.7204 13.2992 13.5092 13.2556Z" fill="#FBBA0E"/>
<path d="M1.68961 28.1522L2.58085 26.5466C2.62027 26.4756 2.6857 26.4235 2.76275 26.4017C2.83981 26.3799 2.92218 26.3903 2.99174 26.4305L8.85026 29.8187C8.8847 29.8386 8.91496 29.8652 8.93931 29.8971C8.96366 29.929 8.98163 29.9654 8.99218 30.0043C9.00274 30.0433 9.00568 30.084 9.00083 30.1241C8.99598 30.1642 8.98344 30.2029 8.96393 30.2381L8.07266 31.8437C8.05315 31.8789 8.02705 31.9098 7.99584 31.9346C7.96463 31.9595 7.92894 31.9778 7.89079 31.9886C7.85264 31.9994 7.81278 32.0024 7.7735 31.9974C7.73421 31.9925 7.69627 31.9797 7.66183 31.9598L1.80329 28.5716C1.73373 28.5314 1.68267 28.4646 1.66136 28.3859C1.64004 28.3073 1.6502 28.2232 1.68961 28.1522Z" fill="#FBBA0E"/>
<path d="M29.0111 1.68457H10.4129C9.79288 1.68528 9.19845 1.93699 8.76002 2.38448C8.32158 2.83198 8.07495 3.43872 8.07422 4.0716V5.25108H31.3498V4.0716C31.349 3.43872 31.1024 2.83198 30.664 2.38449C30.2255 1.93699 29.6311 1.68528 29.0111 1.68457Z" fill="#FBBA0E"/>
<path d="M8.0752 14.9563C8.07443 15.2952 8.14505 15.6303 8.28227 15.9389C8.41948 16.2475 8.62009 16.5224 8.8705 16.7449C8.90035 16.7776 8.93353 16.807 8.96948 16.8325L10.7152 13.4405C11.0407 12.808 11.5828 12.3198 12.2382 12.069C12.8936 11.8181 13.6165 11.822 14.2692 12.08C14.9219 12.338 15.4588 12.8321 15.7777 13.4681C16.0966 14.1041 16.1752 14.8376 15.9985 15.5289L15.5332 17.3445H29.0104C29.6307 17.3439 30.2255 17.0921 30.6641 16.6443C31.1028 16.1966 31.3495 15.5895 31.3501 14.9563V7.86914H8.0752V14.9563Z" fill="#FBBA0E"/>
</g>
<defs>
<clipPath id="clip0_20_38">
<rect width="33" height="32" fill="white"/>
</clipPath>
</defs>
</svg>
