<svg width="320" height="320" viewBox="0 0 320 320" fill="none" xmlns="http://www.w3.org/2000/svg">
<g filter="url(#filter0_b_8_313)">
<circle cx="160" cy="160" r="160" fill="#AC7BC9" fill-opacity="0.15"/>
</g>
<g opacity="0.7">
<mask id="mask0_8_313" style="mask-type:alpha" maskUnits="userSpaceOnUse" x="0" y="0" width="320" height="320">
<circle cx="160" cy="160" r="160" fill="#AC7BC9"/>
</mask>
<g mask="url(#mask0_8_313)">
<path d="M10.3601 261.787C27.2458 257.342 38.0638 248.677 41.7592 232.747C46.27 213.254 34.8155 195.031 26.349 177.112C17.8299 159.001 13.5806 140.979 21.822 122.875C34.2681 94.7986 67.7965 80.1068 97.2554 68.5153C134.735 53.5634 174.173 42.5133 211.176 26.6341C241.388 13.7075 273.927 -7.0634 281.367 -37.9257" stroke="#826196" stroke-miterlimit="10"/>
<path d="M15.2197 267.515C30.8438 262.472 41.4072 253.638 45.3172 238.457C50.2573 219.673 41.1924 202.03 34.691 184.764C28.1369 167.304 25.6434 149.97 33.8379 132.456C46.9359 105.04 78.3654 89.8797 106.79 77.6441C130.398 67.4276 155.387 58.9965 180.321 51.18C194.767 46.7378 208.785 42.3673 222.698 37.6111C238.806 31.8812 255.51 24.2358 269.555 13.4054C282.421 3.17616 291.985 -9.32276 296.214 -24.1541" stroke="#826196" stroke-width="0.9167" stroke-miterlimit="10"/>
<path d="M20.0252 273.056C34.5988 267.376 44.4783 258.444 49.0316 243.941C54.616 225.831 47.9462 208.768 43.4142 192.154C38.8295 175.347 37.8289 158.545 46.243 141.777C59.6185 115.288 89.1052 99.4263 116.493 86.5438C139.915 75.5396 165.307 66.831 190.692 59.7397C205.473 55.6414 220.037 52.3877 234.175 48.3972C250.831 43.782 268.083 37.2484 282.676 26.7165C296.305 16.7508 305.931 4.42664 311.021 -10.5703" stroke="#826196" stroke-width="0.8333" stroke-miterlimit="10"/>
<path d="M24.8298 278.596C38.3504 272.277 47.7589 263.209 52.6895 249.228C58.7052 231.828 54.4355 215.345 52.0389 199.155C49.6423 182.966 49.9762 166.924 58.5573 150.711C72.2107 125.147 99.9642 108.546 126.365 95.2065C149.601 83.411 175.343 74.2298 201.447 68.0228C216.616 64.4625 231.406 61.9776 246.09 59.1057C263.294 55.6083 280.881 50.2253 296.4 39.7264C310.577 30.06 320.427 17.6805 326.218 2.74549" stroke="#826196" stroke-width="0.75" stroke-miterlimit="10"/>
<path d="M29.6236 284.136C41.8741 277.212 51.025 267.971 56.3865 254.706C63.0488 237.979 61.1845 222.077 60.766 206.541C60.3475 191.004 62.3949 175.458 71.1962 159.993C85.3424 135.319 110.93 118.045 136.503 104.016C159.552 91.4258 185.644 81.7694 212.468 76.4488C228.026 73.4279 243.31 71.8718 258.221 69.7703C275.921 67.1999 293.896 63.1646 310.18 52.9274C325.121 43.5241 334.82 31.3536 341.476 16.2492" stroke="#826196" stroke-width="0.6667" stroke-miterlimit="10"/>
<path d="M34.2306 289.904C45.423 282.335 54.1007 272.956 59.8939 260.408C66.9892 244.391 67.588 229.265 69.0988 214.188C70.6625 199.305 74.2121 184.291 83.2338 169.575C97.8733 145.792 121.504 127.805 146.086 113.314C168.946 99.924 195.441 89.9838 222.719 85.3943C238.613 82.7201 254.23 82.3262 269.582 80.9615C287.832 79.5153 306.304 76.4074 323.408 66.6259C338.899 57.5218 348.823 45.2935 356.183 30.2478" stroke="#826196" stroke-width="0.5833" stroke-miterlimit="10"/>
<path d="M39.016 295.444C49.1476 287.228 57.3509 277.71 63.3084 265.721C71.0522 250.38 73.8511 235.872 77.51 221.22C81.0598 206.992 86.1674 192.706 95.3565 178.545C110.222 155.496 131.891 136.793 155.693 121.799C178.311 107.412 205.209 97.1864 233.208 93.4885C249.491 91.3567 265.55 91.7039 281.234 91.5037C300.035 91.1858 318.842 89.2392 336.928 79.6837C353.185 70.8431 363.171 58.7865 371.183 43.604" stroke="#826196" stroke-width="0.5" stroke-miterlimit="10"/>
<path d="M43.7944 300.985C52.8629 292.118 60.5906 282.458 66.9809 271.19C75.4273 256.72 80.5927 242.6 86.2414 228.603C91.9961 214.995 98.3964 201.278 108.021 187.833C123.381 165.676 143.084 146.251 165.836 130.594C188.264 115.398 215.512 104.69 244.017 101.923C260.905 100.299 277.028 101.657 293.155 102.2C312.453 102.82 331.864 102.198 350.451 92.7454C367.528 84.3631 377.471 72.0876 386.189 56.961" stroke="#826196" stroke-width="0.4167" stroke-miterlimit="10"/>
<path d="M48.5563 306.525C56.3444 297.039 63.8112 287.199 70.635 276.65C79.517 262.894 87.1065 249.356 94.9644 235.976C102.713 223.024 110.892 210 120.417 196.952C136.272 175.686 153.737 155.374 175.759 139.4C197.943 123.194 225.648 112.389 254.824 110.325C272.05 109.052 288.722 111.549 305.129 113.07C324.979 114.826 344.674 115.179 364.299 106.147C381.93 98.064 392.151 85.9204 401.523 70.6514" stroke="#826196" stroke-width="0.3333" stroke-miterlimit="10"/>
<path d="M416.323 84.0479C406.295 99.4611 396.012 111.437 377.612 119.256C340.273 135.395 304.153 116.93 265.364 118.572C235.466 119.735 207.41 131.029 185.418 148.054C164.183 164.543 148.745 185.785 132.61 206.12C105.214 240.644 77.4399 275.437 53.1052 312.105" stroke="#826196" stroke-width="0.25" stroke-miterlimit="10"/>
<path d="M417.126 89.5209C407.645 105.213 397.694 117.512 379.688 125.861C343.135 143.058 306.455 125.762 267.756 128.412C238.152 130.549 210.553 142.559 189.226 160.25C168.655 177.405 153.985 198.874 138.672 219.635C112.43 254.903 86.0787 290.597 63.2731 327.736" stroke="#826196" stroke-miterlimit="10"/>
<path d="M64.4886 329.449C68.8786 322.367 73.1626 314.895 78.1427 308.327C84.7475 299.44 92.264 291.421 99.6147 284.453C114.263 270.321 128.898 259.464 143.818 244.673C148.629 239.975 153.387 235.081 157.824 229.832C160.042 227.208 162.207 224.388 164.425 221.763C169.568 214.964 173.258 207.796 177.001 200.824C184.379 187.306 191.435 173.434 204.081 161.891C215.052 151.652 229.19 143.947 243.857 138.197C255.074 133.849 267.308 130.76 280.073 129.627C285.566 129.108 290.735 129.053 296.172 129.157C318.028 129.965 339.22 134.975 360.277 133.669C370.024 133.045 379.669 131.211 389.592 127.081C407.39 119.576 417.665 108.432 427.791 94.2464" stroke="#826196" stroke-width="0.9167" stroke-miterlimit="10"/>
<path d="M65.6449 330.974C70.0939 323.258 74.815 314.881 80.6075 307.962C88.2943 298.879 97.9151 291.108 106.667 285.122C124.654 273.274 142.024 267.469 160.45 253.908C166.07 249.681 171.962 244.793 177.263 239.391C179.914 236.689 182.511 233.792 184.625 230.772C190.311 223.461 193.201 214.984 196.087 207.327C201.645 192.05 205.912 176.171 219.056 163.093C229.118 152.79 243.532 145.232 257.562 139.583C268.301 135.105 280.326 132.048 292.561 130.594C297.789 129.915 302.961 129.86 308.133 129.805C329.195 130.136 350.346 134.958 370.821 133.954C380.412 133.562 389.9 131.958 399.504 128.286C416.877 121.662 427.746 111.836 438.518 99.1593" stroke="#826196" stroke-width="0.8333" stroke-miterlimit="10"/>
<path d="M66.7923 332.501C71.5161 324.11 76.459 314.863 83.0648 307.59C91.7817 298.114 103.294 290.626 113.77 285.981C135.047 276.226 154.993 275.723 176.98 263.59C183.626 259.799 190.49 255.149 196.442 249.629C199.526 246.85 202.288 243.716 204.781 240.422C210.958 232.401 213.153 223.003 215.128 214.462C218.863 197.418 220.338 179.525 233.928 164.71C243.349 154.5 257.556 146.966 271.109 141.185C281.422 136.773 293.133 133.355 304.89 131.776C309.906 131.132 314.974 130.684 319.986 130.862C340.523 130.874 361.096 135.189 381.258 134.649C390.638 134.292 400.022 133.115 409.522 129.866C426.524 124.322 437.932 115.621 449.298 104.26" stroke="#826196" stroke-width="0.75" stroke-miterlimit="10"/>
<path d="M67.9667 334.026C73.0184 325.157 78.3989 315 85.6025 307.411C95.3501 297.541 109.023 290.499 120.902 286.843C145.525 279.385 168.21 283.966 193.709 273.072C201.381 269.718 209.166 265.112 215.984 259.437C219.501 256.581 222.48 253.405 225.353 249.837C232.075 241.302 233.467 230.587 234.53 221.162C236.494 202.543 235.12 182.435 249.155 165.881C257.88 155.569 271.931 148.257 284.791 142.381C294.624 137.839 305.856 134.292 317.566 132.514C322.531 131.673 327.386 131.262 332.348 131.243C352.304 130.739 372.402 134.936 391.98 134.702C401.202 134.578 410.428 133.632 419.66 131.04C436.452 126.347 448.454 118.972 460.467 109.13" stroke="#826196" stroke-width="0.6667" stroke-miterlimit="10"/>
<path d="M69.0084 335.591C74.334 326.052 79.9353 315.026 88.1675 307.05C98.9444 296.792 114.724 290.005 128.112 287.736C156.076 282.585 181.445 292.063 210.29 282.649C218.987 279.736 227.744 275.373 235.375 269.349C239.109 266.455 242.684 262.97 245.504 259.201C252.77 250.156 253.412 238.325 253.562 228.018C253.699 207.636 249.527 185.517 264.005 167.229C271.869 157.054 286.14 149.699 298.355 143.927C307.76 139.454 318.673 135.548 329.848 133.449C334.599 132.643 339.402 132.035 344.096 131.856C363.52 131.032 383.086 134.913 402.29 134.948C411.352 135.057 420.365 134.147 429.543 132.179C445.904 128.378 458.498 122.336 471.155 114.022" stroke="#826196" stroke-width="0.5833" stroke-miterlimit="10"/>
<path d="M70.3001 337.304C75.8998 327.092 81.7221 315.195 90.8208 307.065C102.628 296.418 120.353 290.118 135.359 288.808C166.722 286.164 194.777 300.549 226.97 292.619C236.477 290.183 246.37 285.829 254.704 279.887C258.871 276.916 262.663 273.392 265.863 269.35C273.619 259.595 273.563 246.842 272.8 235.651C270.946 213.735 264.408 189.526 279.06 169.339C286.278 159.264 300.338 151.939 312.071 146.038C320.994 141.437 331.641 137.367 342.334 135.142C347.033 134.139 351.622 133.567 356.264 133.191C374.939 132.082 394.189 135.61 412.804 135.952C421.869 136.061 430.559 135.616 439.414 134.114C455.345 131.207 468.531 126.5 481.78 119.519" stroke="#826196" stroke-width="0.5" stroke-miterlimit="10"/>
<path d="M71.5733 338.83C77.4469 327.946 83.4902 315.178 93.4021 306.698C106.292 295.858 126.126 289.815 142.535 289.502C177.242 289.174 207.767 308.509 243.74 301.992C254.273 299.998 265.355 295.852 274.286 289.598C278.834 286.354 283.058 282.754 286.206 278.511C294.506 268.245 293.646 254.177 292.021 242.298C288.339 218.615 279.27 192.55 294.095 170.464C300.883 160.454 314.73 153.16 325.549 147.204C334.042 142.673 344.206 138.476 354.796 135.855C359.226 134.691 363.763 133.921 368.191 133.582C386.279 131.954 405.048 135.361 423.236 135.777C432.14 136.12 440.669 135.908 449.417 134.836C465.185 132.984 478.909 129.419 492.803 123.971" stroke="#826196" stroke-width="0.4167" stroke-miterlimit="10"/>
<path d="M72.8164 340.198C79.0162 328.843 85.226 315.015 96.0028 306.386C109.921 295.164 131.643 289.417 149.776 290.461C187.822 292.451 221.027 316.691 260.343 311.667C271.901 310.117 283.901 306.02 293.697 299.619C298.676 296.301 303.064 292.466 306.644 288.149C315.433 277.18 314.091 262.16 311.283 249.244C305.826 224.003 294.227 196.096 309.169 171.925C315.309 162.023 328.941 154.765 339.329 148.881C347.336 144.225 357.232 139.867 367.337 137.122C371.768 135.958 376.036 135.027 380.194 134.528C397.745 132.579 416.193 135.629 433.571 136.389C442.26 136.768 450.626 136.791 459.102 136.382C474.436 135.428 488.749 133.205 503.232 129.099" stroke="#826196" stroke-width="0.3333" stroke-miterlimit="10"/>
<path d="M74.06 341.234C80.5296 329.232 87.1722 314.525 98.5391 305.602C113.478 294.015 137.348 288.733 156.871 290.773C198.29 295.272 234.16 324.375 276.745 320.652C295.744 319.077 315.471 311 326.642 297.171C335.969 285.713 333.823 269.41 330.156 255.835C322.874 228.88 309.02 199.336 323.857 173.158C329.346 163.379 342.756 156.167 352.655 150.167C363.473 143.395 378.661 136.91 391.941 135.07C408.677 132.643 426.849 135.529 443.84 136.558C467.736 138.061 490.453 137.707 513.831 133.949" stroke="#826196" stroke-width="0.25" stroke-miterlimit="10"/>
<path d="M79.3643 344.777C85.8339 332.775 92.6225 321.953 103.989 313.03C118.928 301.443 144.512 299.163 164.089 301.399C205.508 305.898 241.377 335.001 283.963 331.278C302.962 329.703 322.688 321.626 333.859 307.797C343.187 296.339 341.041 280.036 337.373 266.461C330.092 239.506 316.238 209.962 331.074 183.783C336.564 174.005 349.974 166.793 359.872 160.793C370.691 154.021 385.879 147.536 399.159 145.696C415.895 143.269 434.066 146.155 451.058 147.184C474.954 148.687 497.67 148.333 521.048 144.575" stroke="#826196" stroke-width="0.75" stroke-miterlimit="10"/>
<path d="M80.1967 350.5C86.9393 338.635 94.4831 328.902 106.176 321.145C107.313 320.333 108.503 319.719 109.856 318.87C125.276 310.686 147.846 309.74 165.977 311.61C176.014 312.792 185.721 315.266 195.319 318.172C224.92 327.371 253.42 341.704 284.96 338.823C303.268 337.157 322.301 329.803 333.582 317.168C342.964 306.71 342.16 292.004 339.89 279.402C336.088 258.608 328.084 235.641 334.272 214.181C335.475 210.266 337.111 206.278 339.448 202.376C345.047 192.973 357.385 185.931 366.587 179.833C376.711 172.961 390.774 166.45 402.985 163.964C405.794 163.487 408.603 163.01 411.466 162.731C424.644 161.318 438.298 162.504 451.469 162.741C473.926 163.052 495.31 161.895 517.677 157.685" stroke="#826196" stroke-width="0.6944" stroke-miterlimit="10"/>
<path d="M81.2367 356.146C88.0898 344.652 96.7689 335.74 108.571 329.188C109.762 328.573 110.953 327.957 112.36 327.305C128.108 320.289 150.149 319.846 168.182 322.151C178.008 323.372 187.668 325.655 197.434 328.332C226.84 336.76 255.364 349.468 286.706 346.618C304.16 345.096 322.499 338.466 333.889 327.027C343.327 317.572 343.813 304.269 342.995 292.84C341.453 273.684 336.244 252.672 343.188 232.28C344.445 228.554 346.135 224.755 348.527 221.043C354.02 212.053 365.499 205.143 374.006 198.946C383.486 192.169 396.37 185.434 407.78 182.461C410.321 181.822 412.916 181.381 415.511 180.94C427.619 178.881 440.366 179.192 452.631 178.553C473.647 177.665 493.912 175.665 515.052 171.038" stroke="#826196" stroke-width="0.6389" stroke-miterlimit="10"/>
<path d="M82.0894 361.826C89.2157 350.47 98.7049 342.851 110.78 337.276C111.972 336.659 113.216 336.24 114.677 335.784C130.806 330.14 152.101 330.24 169.926 332.586C179.758 333.81 189.423 336.097 198.925 338.619C228.35 346.234 256.679 357.349 287.605 354.566C304.42 353.152 322.01 347.052 333.509 336.814C343.002 328.367 344.78 316.472 345.363 306.023C346.352 288.674 343.674 269.466 351.426 250.345C352.954 246.772 354.698 243.164 356.928 239.679C362.314 231.103 372.934 224.327 380.959 217.992C389.743 211.115 401.445 204.154 412.052 200.692C414.326 199.891 416.868 199.251 419.195 198.648C430.448 195.903 442.017 195.175 453.426 193.853C473 191.762 491.927 188.953 512.107 184.068" stroke="#826196" stroke-width="0.5833" stroke-miterlimit="10"/>
<path d="M83.0987 367.729C90.5503 356.717 100.742 350.006 113.087 345.414C114.332 344.995 115.578 344.575 117.039 344.119C133.493 339.656 154.088 340.498 171.973 343.046C181.592 344.308 191.207 346.4 200.659 348.727C229.88 355.56 258.226 365.029 288.729 362.317C304.847 360.813 321.52 355.484 333.127 346.459C342.673 339.028 345.743 328.556 347.781 319.296C351.087 303.81 351.321 286.152 359.719 268.554C361.3 265.175 363.152 261.958 365.219 258.704C370.713 250.513 380.202 243.714 387.58 237.482C395.664 230.508 406.235 223.525 415.767 219.413C417.772 218.449 420.046 217.647 422.373 217.043C432.551 213.65 443.155 211.842 453.975 209.998C471.884 206.738 489.956 203.243 508.847 197.743" stroke="#826196" stroke-width="0.5278" stroke-miterlimit="10"/>
<path d="M84.3373 373.409C92.0602 362.549 103.223 356.911 115.674 353.542C116.919 353.123 118.218 352.901 119.733 352.643C136.51 349.366 156.62 350.915 174.293 353.501C183.967 354.963 193.314 356.895 202.661 358.828C231.676 364.873 260.034 372.69 290.058 369.851C305.53 368.457 321.501 363.866 333.213 356.06C342.81 349.651 347.173 340.609 350.667 332.545C356.292 318.932 359.276 303.072 368.212 286.612C369.9 283.627 371.752 280.407 373.873 277.348C379.258 269.584 387.883 262.927 394.777 256.565C402.16 249.497 411.598 242.493 420.269 237.695C422.274 236.731 424.062 235.804 426.067 234.839C435.331 230.562 445.075 228.07 454.766 225.38C471.223 220.914 488.167 216.572 505.873 210.855" stroke="#826196" stroke-width="0.4722" stroke-miterlimit="10"/>
<path d="M85.3429 379.101C93.1741 368.628 105.255 363.866 118.029 361.686C119.328 361.464 120.627 361.243 122.196 361.182C139.133 359.33 158.705 361.388 176.434 364.175C185.894 365.675 195.19 367.411 204.703 369.109C233.511 374.367 262.099 380.492 291.48 377.761C306.305 376.476 321.304 372.463 333.339 365.84C342.988 360.456 348.698 353.044 353.541 345.78C361.702 334.005 367.222 319.981 376.965 304.821C378.707 302.032 380.666 299.206 382.788 296.145C388.064 288.807 395.825 282.291 402.017 275.836C408.969 268.835 417.003 261.65 424.868 256.362C426.603 255.235 428.338 254.108 430.127 253.18C438.314 248.253 447.091 244.678 455.921 241.302C470.927 235.626 486.525 230.472 503.21 224.302" stroke="#826196" stroke-width="0.4167" stroke-miterlimit="10"/>
<path d="M86.3562 384.811C94.4592 374.489 107.349 371.04 120.393 369.851C121.745 369.828 123.045 369.606 124.614 369.546C141.875 368.884 160.745 371.688 178.479 374.479C187.724 376.017 197.023 377.754 206.431 379.057C235.033 383.525 263.634 387.993 292.589 385.333C306.715 383.959 321.011 380.686 332.935 375.323C342.637 370.963 349.641 364.986 355.941 358.921C366.369 348.825 374.696 336.802 385.247 322.943C387.26 320.313 389.272 317.683 391.285 315.053C396.669 308.105 403.296 301.568 408.84 295.217C415.09 288.121 421.99 280.914 428.994 274.937C430.46 273.647 431.979 272.556 433.445 271.267C440.555 265.687 448.418 261.226 456.334 256.964C469.887 250.075 484.356 244.07 499.855 237.681" stroke="#826196" stroke-width="0.3611" stroke-miterlimit="10"/>
<path d="M87.6122 390.617C96.0404 380.644 109.85 378.075 123 378.116C124.353 378.093 125.706 378.069 127.112 378.245C144.697 378.776 163.082 382.292 180.657 385.321C189.905 386.862 199.152 388.402 208.346 389.743C236.958 393.383 265.357 396.227 293.886 393.638C307.366 392.374 320.742 389.879 332.989 385.704C342.743 382.371 351.258 377.794 359.016 372.93C371.766 364.716 383.063 354.46 394.154 341.743C396.22 339.309 398.287 336.875 400.353 334.441C405.682 328.119 411.39 321.525 416.449 315.041C421.998 307.85 427.764 300.621 433.689 293.99C434.885 292.537 436.352 291.246 437.601 289.991C443.797 283.522 450.529 278.209 457.853 273.419C469.954 265.316 483.077 258.494 497.554 251.649" stroke="#826196" stroke-width="0.3056" stroke-miterlimit="10"/>
<path d="M88.6427 396.315C98.2126 385.513 115.102 385.122 129.764 386.571C156.816 389.441 183.307 396.989 210.522 399.623C238.927 402.47 267.338 403.649 295.387 400.933C335.618 397.173 375.066 386.257 402.779 359.436C418.645 344.223 428.682 325.009 441.255 307.652C454.972 288.641 473.102 275.958 494.474 264.385" stroke="#826196" stroke-width="0.25" stroke-miterlimit="10"/>
</g>
</g>
<g opacity="0.8">
<path d="M189.288 184.706L149.786 191.853C143.376 193.013 137.337 187.466 135.907 181.662L127.526 147.67C126.095 141.867 129.821 136.14 135.784 135.061L142.939 133.767L144.302 139.294L137.147 140.589C134.464 141.074 132.773 143.689 133.488 146.591L141.869 180.583C142.687 183.9 146.038 186.758 148.423 186.326L187.925 179.179C190.161 178.774 191.992 174.834 191.277 171.932L182.76 137.388C182.112 134.762 179.515 133.067 176.98 133.526L163.714 135.926C161.18 136.384 159.753 138.808 160.4 141.433L164.182 156.771L158.219 157.85L154.404 142.374C153.007 136.708 156.653 131.285 162.317 130.261L175.584 127.86C181.397 126.808 187.291 130.505 188.688 136.171L197.205 170.715C198.568 176.243 195.399 183.6 189.288 184.706Z" fill="#FBBA0E"/>
<path d="M168.557 156.845C169.442 160.437 167.177 163.879 163.599 164.526C160.022 165.173 156.325 162.811 155.439 159.218C154.553 155.625 156.819 152.184 160.397 151.537C164.157 151.001 167.705 153.39 168.557 156.845Z" fill="#FBBA0E"/>
<path d="M210.752 165.666L186.386 200.098L181.139 178.819C180.117 174.673 182.694 170.598 187.017 169.816L210.718 165.528L210.752 165.666Z" fill="black"/>
<path d="M187.066 202.86C186.619 202.941 186.287 202.857 185.805 202.8C184.66 202.574 183.676 201.742 183.403 200.636L178.157 179.357C176.76 173.691 180.372 168.13 186.334 167.051L209.886 162.79C211.079 162.574 212.292 163.076 212.978 163.963C213.664 164.849 213.672 166.146 213.131 167.11L188.982 201.792C188.637 202.287 187.96 202.699 187.066 202.86ZM187.88 172.69C185.197 173.175 183.621 175.625 184.302 178.389L187.914 193.036L204.277 169.723L187.88 172.69Z" fill="white"/>
<path d="M189.452 202.429L134.299 212.408C128.634 213.433 122.02 208.712 120.521 202.632L103.896 135.2C102.329 128.844 106.515 122.457 113.223 121.243L186.86 107.92C193.568 106.706 200.378 110.959 201.979 117.453L214.21 167.06L189.452 202.429ZM114.586 126.771C111.157 127.391 109.041 130.805 109.858 134.122L126.484 201.553C127.37 205.146 130.998 207.232 132.936 206.881L185.555 197.361L207.668 165.79L196.017 118.532C195.165 115.078 191.651 112.827 188.223 113.447L114.586 126.771Z" fill="white"/>
</g>
<defs>
<filter id="filter0_b_8_313" x="-20" y="-20" width="360" height="360" filterUnits="userSpaceOnUse" color-interpolation-filters="sRGB">
<feFlood flood-opacity="0" result="BackgroundImageFix"/>
<feGaussianBlur in="BackgroundImageFix" stdDeviation="10"/>
<feComposite in2="SourceAlpha" operator="in" result="effect1_backgroundBlur_8_313"/>
<feBlend mode="normal" in="SourceGraphic" in2="effect1_backgroundBlur_8_313" result="shape"/>
</filter>
</defs>
</svg>
