<svg width="320" height="320" viewBox="0 0 320 320" fill="none" xmlns="http://www.w3.org/2000/svg">
<circle cx="160" cy="160" r="160" fill="#1F1128" fill-opacity="0.5"/>
<mask id="mask0_8_369" style="mask-type:alpha" maskUnits="userSpaceOnUse" x="0" y="0" width="320" height="320">
<circle cx="160" cy="160" r="160" fill="#1F1128" fill-opacity="0.5"/>
</mask>
<g mask="url(#mask0_8_369)">
<path d="M160.814 276.11C243.02 142.058 -136.981 -17.8903 -72.8226 -51.8426C-35.1235 -71.7927 187.309 -49.3482 223.95 -27.5162C283.226 7.80247 178.695 132.147 236.655 199.326C280.788 250.479 397.57 262.85 397.57 262.85C397.57 262.85 386.443 417.553 390.89 467.379C395.503 519.055 329.411 422.089 279.818 437.331C226.624 453.681 37.1373 414.152 -6.5376 379.663C-81.8431 320.196 120.636 341.627 160.814 276.11Z" fill="url(#paint0_linear_8_369)" stroke="#826196"/>
</g>
<path d="M133.188 146.575C133.204 146.708 133.219 146.841 133.172 147.114C133.203 147.38 133.156 147.653 133.109 147.926C133.061 148.198 133.022 148.538 132.982 148.877C132.943 149.216 132.818 149.496 132.692 149.775C132.567 150.055 132.434 150.267 132.301 150.48C132.168 150.693 131.941 150.78 131.706 150.8L122.876 151.555L120.01 176.456C119.947 176.596 119.884 176.735 119.744 176.882C119.603 177.028 119.376 177.115 119.079 177.274C118.782 177.434 118.391 177.468 117.93 177.574C117.469 177.681 116.844 177.734 116.141 177.795C115.437 177.855 114.89 177.902 114.414 177.875C113.937 177.849 113.617 177.809 113.296 177.769C113.054 177.723 112.883 177.603 112.789 177.477C112.695 177.35 112.68 177.217 112.664 177.084L115.531 152.184L106.779 152.933C106.467 152.959 106.303 152.906 106.201 152.713C106.1 152.521 105.999 152.328 105.96 151.995C105.944 151.862 105.921 151.663 105.976 151.456C105.945 151.19 105.993 150.917 106.04 150.645C106.079 150.305 106.126 150.033 106.166 149.693C106.205 149.354 106.331 149.075 106.456 148.795C106.581 148.516 106.715 148.303 106.848 148.09C106.988 147.944 107.207 147.79 107.442 147.77L132.525 145.624C132.76 145.604 132.924 145.657 133.103 145.843C133.126 146.043 133.15 146.243 133.188 146.575Z" fill="white"/>
<path d="M155.095 173.454C155.056 173.793 154.766 174.02 154.321 174.259C153.867 174.432 153.016 174.572 151.922 174.666C151.375 174.713 150.906 174.753 150.507 174.72C150.117 174.753 149.874 174.707 149.632 174.66C149.39 174.614 149.226 174.561 149.211 174.428C149.117 174.301 149.102 174.168 149.086 174.035L149.481 170.642C149.23 171.201 148.894 171.7 148.338 172.353C147.775 172.938 147.133 173.531 146.406 174.063C145.601 174.602 144.78 175.008 143.803 175.428C142.818 175.781 141.825 176.067 140.731 176.161C139.246 176.288 138.051 176.189 136.981 175.81C135.989 175.425 135.146 174.959 134.428 174.215C133.718 173.536 133.227 172.705 132.884 171.794C132.541 170.883 132.269 169.898 132.145 168.834C132.029 167.836 131.984 166.765 132.087 165.614C132.19 164.463 132.363 163.239 132.7 162.068C133.038 160.897 133.453 159.72 134.111 158.589C134.691 157.464 135.442 156.459 136.357 155.508C137.28 154.623 138.297 153.864 139.564 153.218C140.838 152.639 142.213 152.252 143.854 152.112C145.339 151.985 146.777 152.131 148.011 152.562C149.245 152.994 150.353 153.706 151.329 154.63L151.581 152.727C151.621 152.388 151.91 152.162 152.356 151.922C152.809 151.749 153.661 151.609 154.755 151.515C155.302 151.468 155.771 151.428 156.169 151.461C156.568 151.494 156.802 151.474 157.044 151.521C157.286 151.567 157.45 151.62 157.466 151.753C157.559 151.88 157.575 152.013 157.59 152.146L155.095 173.454ZM150.034 159.107C149.308 158.296 148.528 157.691 147.7 157.359C146.872 157.027 145.982 156.834 144.888 156.928C144.106 156.995 143.419 157.188 142.832 157.574C142.246 157.96 141.745 158.406 141.26 158.985C140.853 159.557 140.454 160.196 140.14 160.894C139.827 161.593 139.599 162.351 139.45 163.103C139.301 163.855 139.151 164.607 139.166 165.412C139.095 166.157 139.18 166.888 139.249 167.487C139.303 167.953 139.436 168.412 139.56 168.804C139.685 169.197 139.887 169.582 140.16 169.895C140.434 170.207 140.777 170.447 141.113 170.619C141.527 170.786 142.003 170.812 142.55 170.765C143.332 170.698 144.168 170.425 144.981 169.953C145.794 169.48 146.506 168.814 147.132 168.089C147.75 167.297 148.361 166.439 148.8 165.461C149.238 164.483 149.513 163.451 149.694 162.294L150.034 159.107Z" fill="white"/>
<path d="M187.468 171.558C187.317 172.981 186.917 174.292 186.338 175.417C185.758 176.541 184.921 177.486 183.912 178.311C182.825 179.143 181.559 179.789 179.956 180.262C178.354 180.735 176.502 181.095 174.314 181.282C172.751 181.416 171.329 181.403 170.055 181.311C168.782 181.218 167.735 181.039 166.837 180.78C166.509 180.674 166.337 180.554 166.165 180.434C166.072 180.308 165.963 180.049 165.932 179.783C165.924 179.716 165.901 179.516 165.878 179.317C165.854 179.117 165.902 178.845 165.949 178.572C165.996 178.299 166.043 178.026 166.091 177.754C166.138 177.481 166.263 177.201 166.31 176.929C166.443 176.716 166.576 176.503 166.717 176.356C166.858 176.21 167.085 176.123 167.241 176.11C167.476 176.09 167.718 176.136 168.046 176.243C168.374 176.349 168.858 176.442 169.35 176.601C169.913 176.688 170.561 176.834 171.358 176.9C172.155 176.966 173.178 176.946 174.272 176.852C175.21 176.772 176.062 176.632 176.75 176.438C177.437 176.245 178.117 175.986 178.634 175.673C179.15 175.36 179.572 174.921 179.838 174.495C180.097 174.002 180.269 173.45 180.356 172.838C180.474 171.82 180.608 170.935 180.765 170.25C180.922 169.565 181.087 168.946 181.197 168.534C180.946 169.093 180.532 169.598 179.968 170.184C179.405 170.77 178.748 171.229 178.021 171.761C177.286 172.227 176.465 172.634 175.558 172.98C174.652 173.326 173.8 173.466 172.862 173.546C171.455 173.667 170.26 173.568 169.198 173.255C168.214 172.936 167.363 172.405 166.66 171.793C165.95 171.115 165.467 170.35 165.038 169.379C164.688 168.401 164.415 167.417 164.284 166.286C164.168 165.288 164.115 164.151 164.218 163C164.313 161.782 164.494 160.625 164.831 159.454C165.169 158.283 165.663 157.099 166.242 155.974C166.822 154.85 167.573 153.845 168.496 152.96C169.419 152.075 170.436 151.316 171.71 150.737C172.984 150.157 174.36 149.771 176.001 149.63C177.486 149.503 178.923 149.649 180.157 150.081C181.391 150.513 182.5 151.224 183.475 152.148L183.728 150.246C183.767 149.907 184.056 149.68 184.502 149.441C184.956 149.267 185.807 149.127 186.901 149.034C187.448 148.987 187.917 148.947 188.316 148.98C188.714 149.013 188.948 148.993 189.191 149.039C189.433 149.086 189.597 149.139 189.612 149.272C189.706 149.398 189.721 149.531 189.737 149.664L187.468 171.558ZM182.54 156.326C181.815 155.515 181.034 154.91 180.206 154.578C179.379 154.246 178.488 154.053 177.394 154.147C176.613 154.214 175.925 154.407 175.338 154.793C174.752 155.179 174.251 155.625 173.766 156.204C173.359 156.776 172.96 157.415 172.646 158.113C172.333 158.812 172.106 159.571 171.956 160.322C171.807 161.074 171.665 161.892 171.672 162.631C171.601 163.376 171.686 164.107 171.763 164.773C171.825 165.305 171.957 165.764 172.09 166.223C172.222 166.682 172.495 166.994 172.69 167.313C172.963 167.626 173.299 167.799 173.635 167.972C174.041 168.071 174.447 168.171 174.994 168.124C175.775 168.057 176.612 167.784 177.425 167.311C178.238 166.839 178.95 166.173 179.576 165.448C180.194 164.656 180.805 163.798 181.243 162.82C181.682 161.841 181.949 160.744 182.138 159.653L182.54 156.326Z" fill="white"/>
<path d="M220.89 167.824C220.906 167.957 220.765 168.104 220.702 168.243C220.561 168.39 220.413 168.47 220.108 168.563C219.803 168.656 219.498 168.75 219.037 168.856C218.576 168.963 218.029 169.01 217.404 169.063C216.701 169.123 216.154 169.17 215.755 169.137C215.279 169.111 214.966 169.137 214.716 169.024C214.474 168.978 214.302 168.858 214.216 168.798C214.123 168.672 214.107 168.539 214.092 168.406L216.516 147.171C216.501 147.038 216.642 146.892 216.704 146.752C216.845 146.606 216.994 146.526 217.291 146.366C217.596 146.273 217.901 146.179 218.362 146.073C218.823 145.966 219.37 145.919 220.073 145.859C220.776 145.799 221.323 145.752 221.722 145.785C222.198 145.812 222.519 145.851 222.761 145.898C223.003 145.944 223.175 146.064 223.268 146.19C223.362 146.317 223.377 146.45 223.393 146.583L220.89 167.824Z" fill="white"/>
<path d="M202.689 170.792C200.658 170.966 199.048 170.701 197.932 169.923C196.737 169.152 196.129 167.995 195.952 166.465C195.836 165.467 195.932 163.578 196.318 160.79C196.712 158.069 199.756 135.371 199.756 135.371C201.132 134.312 205.352 133.951 206.398 134.802L202.802 161.579C202.589 163.142 202.549 164.154 202.603 164.619C202.742 165.817 203.585 166.282 205.226 166.141C206.164 166.061 207.517 165.475 207.681 165.528C208.727 166.379 207.16 169.872 207.16 169.872C205.643 170.405 204.174 170.665 202.689 170.792Z" fill="white"/>
<path d="M224.55 139.565C224.759 141.361 223.218 143.038 221.03 143.225C218.92 143.405 216.953 142.096 216.736 140.233C216.527 138.437 218.069 136.76 220.257 136.573C222.445 136.386 224.334 137.702 224.55 139.565Z" fill="white"/>
<defs>
<linearGradient id="paint0_linear_8_369" x1="148.628" y1="-69.1392" x2="180.177" y2="494.172" gradientUnits="userSpaceOnUse">
<stop stop-color="#FBBA0E"/>
<stop offset="1" stop-color="#FBBA0E"/>
</linearGradient>
</defs>
</svg>
