<svg width="133" height="38" viewBox="0 0 133 38" fill="none" xmlns="http://www.w3.org/2000/svg">
<g clip-path="url(#clip0_246_383)">
<path d="M27.2736 30.8609H11.8962C9.40099 30.8609 7.66016 28.2124 7.66016 25.7942V11.6306C7.66016 9.21242 9.57508 7.19727 11.8962 7.19727H14.6815V9.5003H11.8962C10.8517 9.5003 9.98127 10.4215 9.98127 11.6306V25.7942C9.98127 27.1761 10.9677 28.5579 11.8962 28.5579H27.2736C28.144 28.5579 29.1885 27.1185 29.1885 25.9094V11.5154C29.1885 10.4215 28.3761 9.55787 27.3897 9.55787H22.2252C21.2387 9.55787 20.4843 10.4215 20.4843 11.5154V17.9064H18.1632V11.4579C18.1632 9.09727 20.0201 7.19727 22.2252 7.19727H27.3897C29.6527 7.19727 31.5096 9.09727 31.5096 11.4579V25.8518C31.5096 28.1548 29.6527 30.8609 27.2736 30.8609Z" fill="#FBBA0E"/>
<path d="M22.1084 18.252C22.1084 19.7489 20.9479 20.958 19.5552 20.958C18.1625 20.958 17.002 19.7489 17.002 18.252C17.002 16.755 18.1625 15.5459 19.5552 15.5459C21.0059 15.6035 22.1084 16.8126 22.1084 18.252Z" fill="#FBBA0E"/>
<path d="M37.0222 24.8154L24.7783 36.7911V27.9245C24.7783 26.1972 26.113 24.7578 27.7958 24.7578H37.0222V24.8154Z" fill="black"/>
<path d="M24.7777 37.9428C24.6037 37.9428 24.4876 37.8852 24.3135 37.8277C23.9073 37.6549 23.6172 37.2519 23.6172 36.7913V27.9246C23.6172 25.564 25.4741 23.6064 27.7952 23.6064H36.9636C37.4278 23.6064 37.834 23.8943 38.0081 24.2974C38.1822 24.7004 38.0661 25.2186 37.776 25.564L25.5901 37.6549C25.4161 37.8277 25.1259 37.9428 24.7777 37.9428ZM27.8532 25.9671C26.8087 25.9671 25.9963 26.8307 25.9963 27.9822V34.0852L34.2363 25.9671H27.8532Z" fill="white"/>
<path d="M25.7064 37.9425H4.23604C2.03098 37.9425 0 35.5819 0 33.0485V4.95156C0 2.30307 2.14703 0.0576172 4.75829 0.0576172H33.4241C36.0353 0.0576172 38.1824 2.2455 38.1824 4.95156V25.6213L25.7064 37.9425ZM4.75829 2.36065C3.42365 2.36065 2.32112 3.56974 2.32112 4.95156V33.0485C2.32112 34.5455 3.48168 35.6394 4.23604 35.6394H24.7199L35.8613 24.6425V4.95156C35.8613 3.51216 34.7587 2.36065 33.4241 2.36065H4.75829Z" fill="white"/>
<path d="M65.2231 5.29723C65.2231 5.41238 65.2231 5.52753 65.1651 5.75784C65.1651 5.98814 65.1071 6.21844 65.049 6.44875C64.991 6.67905 64.933 6.96693 64.875 7.25481C64.8169 7.54269 64.7009 7.77299 64.5848 8.00329C64.4688 8.23359 64.3527 8.40632 64.2366 8.57905C64.1206 8.75178 63.9465 8.80935 63.7724 8.80935H57.2153L52.9792 29.9397C52.9212 30.0548 52.8632 30.17 52.7471 30.2851C52.6311 30.4003 52.457 30.4578 52.2249 30.573C51.9927 30.6881 51.7026 30.6881 51.3544 30.7457C51.0063 30.8033 50.542 30.8033 50.0198 30.8033C49.4975 30.8033 49.0914 30.8033 48.7432 30.7457C48.395 30.6881 48.1629 30.6306 47.9308 30.573C47.7567 30.5154 47.6407 30.4003 47.5826 30.2851C47.5246 30.17 47.5246 30.0548 47.5246 29.9397L51.7606 8.80935H45.2615C45.0294 8.80935 44.9133 8.75178 44.8553 8.57905C44.7973 8.40632 44.7393 8.23359 44.7393 7.94572C44.7393 7.83056 44.7393 7.65784 44.7973 7.48511C44.7973 7.25481 44.8553 7.0245 44.9133 6.7942C44.9714 6.50632 45.0294 6.27602 45.0874 5.98814C45.1455 5.70026 45.2615 5.46996 45.3776 5.23965C45.4936 5.00935 45.6097 4.83662 45.7257 4.6639C45.8418 4.54875 46.0159 4.43359 46.19 4.43359H64.8169C64.991 4.43359 65.1071 4.49117 65.2231 4.6639C65.2231 4.83662 65.2231 5.00935 65.2231 5.29723Z" fill="white"/>
<path d="M79.0336 29.9394C78.9756 30.2272 78.7435 30.4 78.3953 30.5727C78.0472 30.6879 77.4089 30.7454 76.5965 30.7454C76.1903 30.7454 75.8421 30.7454 75.552 30.6879C75.2618 30.6879 75.0877 30.6303 74.9137 30.5727C74.7396 30.5151 74.6235 30.4576 74.6235 30.3424C74.5655 30.2272 74.5655 30.1121 74.5655 29.9969L75.1458 27.1182C74.9137 27.5788 74.6235 27.9818 74.1593 28.5C73.6951 28.9606 73.1728 29.4212 72.5925 29.8242C71.9542 30.2272 71.3159 30.5151 70.5616 30.803C69.8072 31.0333 69.0528 31.206 68.2404 31.206C67.1379 31.206 66.2675 31.0333 65.5131 30.6303C64.8168 30.2272 64.2365 29.7666 63.7723 29.0757C63.3081 28.4424 63.0179 27.6939 62.8439 26.8879C62.6698 26.0818 62.5537 25.2182 62.5537 24.2969C62.5537 23.4333 62.6117 22.5121 62.7858 21.5333C62.9599 20.5545 63.192 19.5182 63.5402 18.5394C63.8884 17.5606 64.2945 16.5818 64.8748 15.6606C65.3971 14.7394 66.0354 13.9333 66.7897 13.1848C67.5441 12.4939 68.3565 11.9182 69.343 11.4576C70.3295 11.0545 71.374 10.8242 72.5925 10.8242C73.6951 10.8242 74.7396 11.0545 75.61 11.5151C76.4804 11.9757 77.2348 12.6666 77.8731 13.5303L78.2213 11.9182C78.2793 11.6303 78.5114 11.4576 78.8596 11.2848C79.2077 11.1697 79.846 11.1121 80.6584 11.1121C81.0646 11.1121 81.4128 11.1121 81.7029 11.1697C81.9931 11.2272 82.1671 11.2272 82.3412 11.2848C82.5153 11.3424 82.6314 11.4 82.6314 11.5151C82.6894 11.6303 82.6894 11.7454 82.6894 11.8606L79.0336 29.9394ZM76.5384 17.2727C76.0742 16.5242 75.552 15.9485 74.9717 15.603C74.3914 15.2576 73.7531 15.0272 72.9407 15.0272C72.3604 15.0272 71.8382 15.1424 71.374 15.4303C70.9097 15.7182 70.5035 16.0636 70.0973 16.5242C69.7492 16.9848 69.401 17.503 69.1109 18.0788C68.8207 18.6545 68.5886 19.2879 68.4145 19.9212C68.2404 20.5545 68.0664 21.1879 68.0083 21.8788C67.8923 22.5121 67.8923 23.1454 67.8923 23.6636C67.8923 24.0666 67.9503 24.4697 68.0083 24.8151C68.0664 25.1606 68.1824 25.506 68.3565 25.7939C68.5306 26.0818 68.7627 26.3121 68.9948 26.4848C69.2849 26.6576 69.6331 26.7151 70.0393 26.7151C70.6196 26.7151 71.2579 26.5424 71.8962 26.1969C72.5345 25.8515 73.1148 25.3333 73.637 24.7576C74.1593 24.1242 74.6815 23.4333 75.0877 22.6272C75.4939 21.8212 75.7841 20.9576 76.0162 19.9788L76.5384 17.2727Z" fill="white"/>
<path d="M102.999 30.688C102.767 31.8971 102.361 32.9911 101.839 33.9123C101.316 34.8335 100.62 35.582 99.8078 36.2153C98.9374 36.8486 97.9509 37.3092 96.7323 37.5971C95.5137 37.885 94.121 38.0577 92.4963 38.0577C91.3357 38.0577 90.2912 37.9426 89.3627 37.7698C88.4343 37.5971 87.6799 37.3668 87.0416 37.0789C86.8095 36.9638 86.6935 36.8486 86.5774 36.7335C86.5194 36.6183 86.4614 36.388 86.4614 36.1577C86.4614 36.1001 86.4614 35.9274 86.4614 35.7547C86.4614 35.582 86.5194 35.3517 86.5774 35.1214C86.6354 34.8911 86.6935 34.6607 86.7515 34.4304C86.8095 34.2001 86.9256 33.9698 86.9836 33.7395C87.0997 33.5668 87.2157 33.3941 87.3318 33.2789C87.4478 33.1638 87.6219 33.1062 87.738 33.1062C87.912 33.1062 88.0861 33.1638 88.3182 33.2789C88.5504 33.3941 88.8985 33.5092 89.2467 33.682C89.6529 33.7971 90.1171 33.9698 90.6974 34.085C91.2777 34.2001 92.032 34.2577 92.8444 34.2577C93.5408 34.2577 94.1791 34.2001 94.7013 34.085C95.2236 33.9698 95.7458 33.7971 96.152 33.5668C96.5582 33.3365 96.9064 32.9911 97.1385 32.6456C97.3706 32.2426 97.5447 31.782 97.6607 31.2638C97.8348 30.4001 98.0089 29.6517 98.183 29.0759C98.3571 28.5001 98.5312 27.982 98.6472 27.6365C98.4151 28.0971 98.0669 28.5001 97.6027 28.9607C97.1385 29.4214 96.6162 29.7668 96.036 30.1698C95.4557 30.5153 94.8174 30.8032 94.121 31.0335C93.4247 31.2638 92.7864 31.3214 92.0901 31.3214C91.0456 31.3214 90.1751 31.1486 89.4208 30.8032C88.7244 30.4577 88.1442 29.9395 87.6799 29.3638C87.2157 28.7304 86.9256 28.0395 86.6935 27.1759C86.5194 26.3123 86.4033 25.4486 86.4033 24.4698C86.4033 23.6062 86.4614 22.6274 86.6354 21.6486C86.8095 20.6123 87.0416 19.6335 87.3898 18.6547C87.738 17.6759 88.2022 16.6971 88.7244 15.7759C89.2467 14.8547 89.885 14.0486 90.6394 13.3577C91.3937 12.6668 92.2061 12.0911 93.1926 11.688C94.1791 11.285 95.2236 11.0547 96.4422 11.0547C97.5447 11.0547 98.5892 11.285 99.4596 11.7456C100.33 12.2062 101.084 12.8971 101.723 13.7607L102.071 12.1486C102.129 11.8607 102.361 11.688 102.709 11.5153C103.057 11.4001 103.696 11.3426 104.508 11.3426C104.914 11.3426 105.262 11.3426 105.553 11.4001C105.843 11.4577 106.017 11.4577 106.191 11.5153C106.365 11.5729 106.481 11.6304 106.481 11.7456C106.539 11.8607 106.539 11.9759 106.539 12.0911L102.999 30.688ZM100.678 17.2729C100.214 16.5244 99.6917 15.9486 99.1114 15.6032C98.5312 15.2577 97.8929 15.0274 97.0805 15.0274C96.5002 15.0274 95.9779 15.1426 95.5137 15.4304C95.0495 15.7183 94.6433 16.0638 94.2371 16.5244C93.8889 16.985 93.5408 17.5032 93.2506 18.0789C92.9605 18.6547 92.7284 19.288 92.5543 19.9214C92.3802 20.5547 92.2061 21.2456 92.1481 21.8789C92.032 22.5123 92.032 23.1456 92.032 23.7214C92.032 24.182 92.0901 24.585 92.1481 24.988C92.2061 25.3911 92.3802 25.6789 92.4963 25.9668C92.6703 26.2547 92.9025 26.4274 93.1346 26.6001C93.4247 26.7153 93.7148 26.8304 94.121 26.8304C94.7013 26.8304 95.3396 26.6577 95.9779 26.3123C96.6162 25.9668 97.1965 25.4486 97.7188 24.8729C98.241 24.2395 98.7633 23.5486 99.1695 22.7426C99.5757 21.9365 99.8658 21.0153 100.098 20.0941L100.678 17.2729Z" fill="white"/>
<path d="M127.893 29.9395C127.893 30.0547 127.777 30.1698 127.719 30.285C127.603 30.4001 127.487 30.4577 127.255 30.5153C127.023 30.5729 126.791 30.6304 126.442 30.688C126.094 30.7456 125.688 30.7456 125.224 30.7456C124.702 30.7456 124.295 30.7456 124.005 30.688C123.657 30.6304 123.425 30.6304 123.251 30.5153C123.077 30.4577 122.961 30.3426 122.903 30.285C122.845 30.1698 122.845 30.0547 122.845 29.9395L126.442 11.9183C126.442 11.8032 126.559 11.688 126.617 11.5729C126.733 11.4577 126.849 11.4001 127.081 11.285C127.313 11.2274 127.545 11.1698 127.893 11.1123C128.241 11.0547 128.648 11.0547 129.17 11.0547C129.692 11.0547 130.098 11.0547 130.388 11.1123C130.737 11.1698 130.969 11.2274 131.143 11.285C131.317 11.3426 131.433 11.4577 131.491 11.5729C131.549 11.688 131.549 11.8032 131.549 11.9183L127.893 29.9395Z" fill="white"/>
<path d="M114.257 31.149C112.748 31.149 111.588 30.8035 110.833 30.055C110.021 29.3065 109.673 28.2702 109.673 26.9459C109.673 26.0823 109.905 24.4702 110.427 22.1096C110.949 19.8065 115.127 0.576225 115.127 0.576225C116.23 -0.229835 119.364 -0.229835 120.06 0.576225L115.127 23.2611C114.837 24.5853 114.721 25.449 114.721 25.852C114.721 26.8883 115.302 27.349 116.52 27.349C117.216 27.349 118.261 26.9459 118.377 27.0035C119.073 27.8096 117.623 30.6883 117.623 30.6883C116.462 31.0338 115.36 31.149 114.257 31.149Z" fill="white"/>
<path d="M133 5.98816C133 7.54271 131.723 8.86695 130.099 8.86695C128.532 8.86695 127.197 7.60028 127.197 5.98816C127.197 4.43362 128.474 3.10938 130.099 3.10938C131.723 3.10938 133 4.37604 133 5.98816Z" fill="white"/>
</g>
<defs>
<clipPath id="clip0_246_383">
<rect width="133" height="38" fill="white"/>
</clipPath>
</defs>
</svg>
